<?xml version="1.0" encoding="UTF-8"?>
<svg xmlns="http://www.w3.org/2000/svg" xmlns:xlink="http://www.w3.org/1999/xlink" width="512pt" height="512pt"
     viewBox="0 0 512 512" version="1.1">
  <g id="surface1">
    <path style=" stroke:none;fill-rule:nonzero;fill:#FFFFFF;fill-opacity:1;"
          d="M 256 64 C 150.125 64 64 150.125 64 256 C 64 361.875 150.125 448 256 448 C 361.875 448 448 361.875 448 256 C 448 150.125 361.875 64 256 64 Z M 256 96 C 344.5625 96 416 167.4375 416 256 C 416 344.5625 344.5625 416 256 416 C 167.4375 416 96 344.5625 96 256 C 96 167.4375 167.4375 96 256 96 Z M 176 176 C 149.6875 176 128 197.6875 128 224 L 128 232 L 160 232 L 160 224 C 160 214.9375 166.9375 208 176 208 L 208 208 C 217.0625 208 224 214.9375 224 224 C 224 233.0625 217.0625 240 208 240 L 176 240 L 176 272 L 208.625 272 C 217.5 272 224 278.375 224 287 L 224 287.8125 C 224 297.125 217 304 208 304 L 176 304 C 166.9375 304 160 297.0625 160 288 L 160 280 L 128 280 L 128 288 C 128 314.3125 149.6875 336 176 336 L 208 336 C 234.3125 336 256 314.25 256 287.8125 L 256 287 C 256 273.9375 250.5 262.125 241.75 253.625 C 244.8125 249.5 247.375 244.875 249.3125 240 L 256 240 L 256 224 C 256 197.6875 234.3125 176 208 176 Z M 272 176 L 272 336 L 320 336 C 355.1875 336 384 307.1875 384 272 L 384 240 C 384 204.8125 355.1875 176 320 176 Z M 304 208 L 320 208 C 337.875 208 352 222.125 352 240 L 352 272 C 352 289.875 337.875 304 320 304 L 304 304 Z "/>
  </g>
</svg>
