<svg xmlns="http://www.w3.org/2000/svg" width="27.402" height="41.103" viewBox="0 0 27.402 41.103">
    <defs>
        <style>
            .cls-1{fill:#535353}
        </style>
    </defs>
    <g id="surface1" transform="translate(-89.285 -9.922)">
        <path id="Path_360" d="M102.986 9.922a13.719 13.719 0 0 0-13.7 13.7c0 12.085 12.527 26.5 13.059 27.107a.849.849 0 0 0 .642.294.88.88 0 0 0 .642-.294c.532-.619 13.059-15.28 13.059-27.107a13.719 13.719 0 0 0-13.702-13.7zm0 9.419a5.138 5.138 0 1 1-5.138 5.138 5.139 5.139 0 0 1 5.138-5.138z" class="cls-1" data-name="Path 360"/>
    </g>
</svg>
