<?xml version="1.0" encoding="UTF-8"?>
<svg xmlns="http://www.w3.org/2000/svg" xmlns:xlink="http://www.w3.org/1999/xlink" width="480pt" height="480pt" viewBox="0 0 480 480" version="1.1">
<g id="surface1">
<path style=" stroke:none;fill-rule:nonzero;fill:#FFFFFF;fill-opacity:1;" d="M 100 60 C 77.96875 60 60 77.96875 60 100 L 60 180 C 60 202.03125 77.96875 220 100 220 L 180 220 C 202.03125 220 220 202.03125 220 180 L 220 100 C 220 77.96875 202.03125 60 180 60 Z M 300 60 C 277.96875 60 260 77.96875 260 100 L 260 180 C 260 202.03125 277.96875 220 300 220 L 380 220 C 402.03125 220 420 202.03125 420 180 L 420 100 C 420 77.96875 402.03125 60 380 60 Z M 100 260 C 77.96875 260 60 277.96875 60 300 L 60 380 C 60 402.03125 77.96875 420 100 420 L 180 420 C 202.03125 420 220 402.03125 220 380 L 220 300 C 220 277.96875 202.03125 260 180 260 Z M 300 260 C 277.96875 260 260 277.96875 260 300 L 260 380 C 260 402.03125 277.96875 420 300 420 L 380 420 C 402.03125 420 420 402.03125 420 380 L 420 300 C 420 277.96875 402.03125 260 380 260 Z "/>
</g>
</svg>
