<svg xmlns="http://www.w3.org/2000/svg" width="30" height="31.25" viewBox="0 0 30 31.25">
    <defs>
        <style>
            .cls-1{fill:#535353}
        </style>
    </defs>
    <g id="surface1" transform="translate(-47.367 -15.789)">
        <path id="Path_357" d="M53.617 15.789s-2.5 3.618-2.5 5a2.5 2.5 0 0 0 5 0c0-1.382-2.5-5-2.5-5zm8.75 0s-2.5 3.618-2.5 5a2.5 2.5 0 0 0 5 0c0-1.382-2.5-5-2.5-5zm8.75 0s-2.5 3.618-2.5 5a2.5 2.5 0 0 0 5 0c0-1.382-2.5-5-2.5-5zm-20 10v5.181a5.009 5.009 0 0 0-3.75 4.819 4.95 4.95 0 0 0 1.25 3.262v5.488a2.5 2.5 0 0 0 2.5 2.5h22.5a2.5 2.5 0 0 0 2.5-2.5v-5.488a4.95 4.95 0 0 0 1.25-3.262 5.009 5.009 0 0 0-3.75-4.819v-5.181h-5v5h-3.75v-5h-5v5h-3.75v-5zm1.25 7.5h20a2.5 2.5 0 1 1-1.66 4.35l-.84-.757-.84.757a2.446 2.446 0 0 1-3.32 0l-.84-.757-.84.757a2.447 2.447 0 0 1-3.32 0l-.84-.757-.84.757a2.447 2.447 0 0 1-3.32 0l-.84-.757-.84.757a2.494 2.494 0 1 1-1.66-4.35z" class="cls-1" data-name="Path 357"/>
    </g>
</svg>
