<svg xmlns="http://www.w3.org/2000/svg" id="prefix__surface1" width="22.264" height="20.619" viewBox="0 0 22.264 20.619">
    <path id="prefix__Path_11790" d="M8.594 0C3.908 0 0 3.223 0 7.3a6.864 6.864 0 0 0 2.766 5.237 4.107 4.107 0 0 1-.833 1.934c-.2.259-.389.477-.564.671a2.251 2.251 0 0 0-.269.358.9.9 0 0 0-.161.349 1.028 1.028 0 0 0 .161.7l.107.188.215.107a3.2 3.2 0 0 0 2.309.107 10.6 10.6 0 0 0 2.149-.913c.685-.363 1.339-.742 1.853-1.02.07-.04.117-.047.188-.081a8.184 8.184 0 0 0 6.607 3.115.641.641 0 0 0 .081 0c1.118 0 4.727 3.69 6.875 2.229.087-.343-1.89-1.2-1.987-3.76a6.1 6.1 0 0 0 2.767-4.921c0-2.9-2.3-5.294-5.371-6.15C15.923 2.289 12.542 0 8.594 0zm0 1.719c3.908 0 6.875 2.622 6.875 5.586s-2.969 5.587-6.875 5.587a3.2 3.2 0 0 0-1.665.591c-.568.305-1.219.685-1.853 1.02a9.859 9.859 0 0 1-1.558.671 5.462 5.462 0 0 0 1.047-2.82l.027-.484-.4-.3A5.316 5.316 0 0 1 1.719 7.3c0-2.959 2.968-5.581 6.875-5.581z" data-name="Path 11790" style="fill:#fff"/>
</svg>
