<svg xmlns="http://www.w3.org/2000/svg" width="48.911" height="56.011" viewBox="0 0 48.911 56.011">
    <defs>
        <style>
            .cls-1{fill:#2c50ee}
        </style>
    </defs>
    <g id="surface1" transform="translate(-38.5 -86.037)">
        <g id="surface1-2" data-name="surface1" transform="translate(-15.5 68.037)">
            <path id="Path_11463" d="M73.722 18a1.589 1.589 0 0 0-1.578 1.578v2.367a1.589 1.589 0 0 0 1.578 1.578H75.3v1.787a24.467 24.467 0 1 0 21.368 7.938l1.115-1.116a1.584 1.584 0 0 0 1.849-.271l.884-.881a1.588 1.588 0 0 0 0-2.231l-2.829-2.829a1.592 1.592 0 0 0-2.231 0l-.884.884a1.584 1.584 0 0 0-.272 1.846l-1.279 1.279a24.352 24.352 0 0 0-11.41-4.619v-1.788h1.578a1.589 1.589 0 0 0 1.578-1.578v-2.366A1.589 1.589 0 0 0 83.189 18zm0 1.578h9.467v2.367h-9.467zm3.156 3.944h3.156V25.1h-3.156zm1.578 3.156a22.878 22.878 0 1 1-22.878 22.878 22.867 22.867 0 0 1 22.878-22.878zm18.117.354l2.827 2.829-.884.884-2.829-2.829zm-18.117 2.012a.789.789 0 1 0 .789.789.79.79 0 0 0-.789-.789zm-5.1.672a.326.326 0 0 0-.055 0 .694.694 0 0 0-.157.025.787.787 0 1 0 .213-.028zm10.194 0a.791.791 0 1 0 .213.028.63.63 0 0 0-.21-.025zm11.809.1l1.251 1.251-1.039 1.038q-.633-.624-1.307-1.2zm-26.783 1.869a.771.771 0 0 0-.376.108.78.78 0 0 0-.37.478.789.789 0 1 0 1.445-.191.783.783 0 0 0-.699-.395zm19.7 0a.787.787 0 0 0-.358 1.47.788.788 0 1 0 .358-1.47zm-23.755 3.137a.776.776 0 0 0-.57.228.79.79 0 0 0 .558 1.35.79.79 0 0 0 .561-1.35.782.782 0 0 0-.549-.228zm27.891 0a.787.787 0 1 0 .549.228.782.782 0 0 0-.549-.228zM67.655 38.03l-1.1 1.134 9.165 8.85a3.087 3.087 0 0 0-.422 1.541 3.166 3.166 0 0 0 3.156 3.156 3.109 3.109 0 0 0 1.59-.447l1.59 1.59 1.119-1.119-1.59-1.59a3.109 3.109 0 0 0 .447-1.59 3.166 3.166 0 0 0-3.154-3.155 3.091 3.091 0 0 0-1.639.478zm27.861.875a.789.789 0 0 0-.666 1.183.79.79 0 0 0 1.079.287.781.781 0 0 0 .37-.478.791.791 0 0 0-.783-.992zm-34.178 0a.791.791 0 0 0-.358 1.473.788.788 0 1 0 .358-1.473zM59.4 43.664a.782.782 0 1 0 .21.025.682.682 0 0 0-.21-.025zm38.138 0a.738.738 0 0 0-.234.028.782.782 0 1 0 .234-.028zm-19.082 4.314a1.578 1.578 0 1 1-1.578 1.578 1.565 1.565 0 0 1 1.578-1.578zm-19.722.789a.789.789 0 1 0 .789.789.79.79 0 0 0-.79-.789zm39.444 0a.789.789 0 1 0 .789.789.79.79 0 0 0-.789-.789zm-38.742 5.1a.841.841 0 0 0-.234.028.782.782 0 1 0 .234-.028zm38.064 0a.792.792 0 1 0 .21.028.8.8 0 0 0-.21-.022zm-36.144 4.761a.811.811 0 0 0-.376.1.79.79 0 0 0 .191 1.445.765.765 0 0 0 .6-.08.78.78 0 0 0 .37-.478.791.791 0 0 0-.783-.992zm34.141 0a.8.8 0 0 0-.647.394.79.79 0 1 0 1.448.191.8.8 0 0 0-.8-.585zm-30.976 4.083a.817.817 0 0 0-.57.231.792.792 0 1 0 .57-.231zm27.891 0a.817.817 0 0 0-.57.231.792.792 0 1 0 .57-.231zM88.3 65.845a.8.8 0 0 0-.373.1.79.79 0 0 0 .789 1.368.8.8 0 0 0 .367-.481.769.769 0 0 0-.08-.6.788.788 0 0 0-.703-.387zm-19.738 0a.788.788 0 1 0 .718 1.183.769.769 0 0 0 .08-.6.786.786 0 0 0-.8-.585zm15.01 1.969a.36.36 0 0 0-.059 0 .849.849 0 0 0-.154.025.779.779 0 0 0-.481.367.787.787 0 0 0 .29 1.079.79.79 0 1 0 .4-1.473zm-10.225 0a.784.784 0 1 0 .21.025.686.686 0 0 0-.214-.019zm5.112.669a.789.789 0 1 0 .789.789.79.79 0 0 0-.792-.783z" class="cls-1" data-name="Path 11463"/>
        </g>
    </g>
</svg>
