<svg xmlns="http://www.w3.org/2000/svg" width="15" height="14.348" viewBox="0 0 15 14.348">
    <path id="prefix__comments" d="M27.34 39.684c-4.141 0-7.5 2.935-7.5 6.522a6.181 6.181 0 0 0 2.935 5.152 4.807 4.807 0 0 1-.913 2.151l-.358.522h.652a4.731 4.731 0 0 0 3.358-1.5 8.428 8.428 0 0 0 1.827.2c4.141 0 7.5-2.935 7.5-6.522s-3.36-6.525-7.501-6.525zm-3.261 7.174a.652.652 0 1 1 .652-.652.654.654 0 0 1-.652.652zm3.261 0a.652.652 0 1 1 .652-.652.653.653 0 0 1-.652.652zm3.261 0a.652.652 0 1 1 .652-.652.653.653 0 0 1-.653.652z" transform="translate(-19.84 -39.684)" style="fill:#fff"/>
</svg>
