<svg xmlns="http://www.w3.org/2000/svg" width="11" height="11" viewBox="0 0 11 11">
    <path id="prefix__Path_11761" d="M52.867 47.367a5.5 5.5 0 1 1-5.5 5.5 5.5 5.5 0 0 1 5.5-5.5zm0 .917a.458.458 0 1 0 .458.458.459.459 0 0 0-.458-.458zm4.125 5.042a.458.458 0 1 0-.458-.458.459.459 0 0 0 .458.458zm-1.532 2.782a.458.458 0 1 0 0-.648.458.458 0 0 0 0 .648zm0-5.833a.458.458 0 1 0 0-.648.458.458 0 0 0 0 .648zm-1.944 3.241a.916.916 0 0 0 0-1.3c-.226-.226-2.052-1.54-3.378-2.487a.29.29 0 0 0-.4.4c.947 1.327 2.261 3.153 2.487 3.378a.916.916 0 0 0 1.29.008zm-3.889 2.593a.458.458 0 1 0 0-.648.458.458 0 0 0 0 .647zm-.884-2.782a.458.458 0 1 0-.458-.458.459.459 0 0 0 .457.457z" data-name="Path 11761" transform="translate(-47.367 -47.367)" style="fill:#fff"/>
</svg>
