<svg xmlns="http://www.w3.org/2000/svg" width="37" height="37" viewBox="0 0 37 37">
    <defs>
        <style>
            .cls-1{fill:#535353}
        </style>
    </defs>
    <g id="surface1" transform="translate(-429 -302)">
        <path id="Path_354" d="M21.635 24.387H21.5q-1.535 4.312-5.565 4.308a5.987 5.987 0 0 1-4.875-2.256 9.541 9.541 0 0 1-1.855-6.249 13.138 13.138 0 0 1 2.568-8.405A7.656 7.656 0 0 1 17.95 8.55q3.268 0 4.1 2.64h.089l.217-2.234h4.931q-.987 9.613-.987 12.568 0 3.16 1.667 3.157c1.173 0 2.135-.8 2.9-2.39A14.674 14.674 0 0 0 32 16.043a11.929 11.929 0 0 0-3.269-8.655q-3.268-3.369-9.117-3.375a13.581 13.581 0 0 0-10.422 4.5A15.6 15.6 0 0 0 5.042 19.5q0 6.27 3.669 9.878t10.139 3.609a20.82 20.82 0 0 0 9.033-1.94v4.308A24.215 24.215 0 0 1 18.239 37q-8.1 0-13.164-4.77T0 19.4A19.084 19.084 0 0 1 5.414 5.6 18.542 18.542 0 0 1 19.356 0q7.888 0 12.769 4.341A14.6 14.6 0 0 1 37 15.793q0 5.845-2.98 9.377a9.307 9.307 0 0 1-7.388 3.53 5.16 5.16 0 0 1-3.53-1.2 4.314 4.314 0 0 1-1.467-3.113zm-2.918-11.913c-1.312 0-2.385.773-3.207 2.313a11.163 11.163 0 0 0-1.24 5.359 5.837 5.837 0 0 0 .845 3.374 2.546 2.546 0 0 0 2.179 1.207 3.6 3.6 0 0 0 3.246-2.279 13.335 13.335 0 0 0 1.178-6.087 4.46 4.46 0 0 0-.823-2.846 2.643 2.643 0 0 0-2.178-1.041z" class="cls-1" data-name="Path 354" transform="translate(429 302)"/>
    </g>
</svg>
