<svg xmlns="http://www.w3.org/2000/svg" width="15" height="15" viewBox="0 0 15 15">
    <path id="prefix__form-selected" d="M76.793 63.156H64.52a1.363 1.363 0 0 0-1.364 1.364v12.273a1.363 1.363 0 0 0 1.364 1.364h12.273a1.363 1.363 0 0 0 1.364-1.364V64.52a1.363 1.363 0 0 0-1.364-1.364zm-7.5 4.091H65.2a.682.682 0 0 1 0-1.364h4.091a.682.682 0 0 1 0 1.364zm6.818.682H72.02a.683.683 0 0 1-.682-.682v-1.363a.683.683 0 0 1 .682-.682h4.091a.683.683 0 0 1 .682.682v1.364a.683.683 0 0 1-.682.681zm-6.818 3.409H65.2a.682.682 0 0 1 0-1.364h4.091a.682.682 0 0 1 0 1.364zm6.818 4.091H72.02a.682.682 0 0 1 0-1.364h4.091a.682.682 0 1 1 0 1.364zm0-3.409H72.02a.683.683 0 0 1-.682-.682v-1.364a.683.683 0 0 1 .682-.682h4.091a.683.683 0 0 1 .682.682v1.364a.683.683 0 0 1-.682.682zm-6.818 4.091h-1.364a.683.683 0 0 1-.682-.682v-1.364a.683.683 0 0 1 .682-.682h1.364a.683.683 0 0 1 .682.682v1.364a.683.683 0 0 1-.682.682z" transform="translate(-63.156 -63.156)" style="fill:#444"/>
</svg>
