<svg xmlns="http://www.w3.org/2000/svg" width="40.382" height="40.382" viewBox="0 0 40.382 40.382">
  <path id="Path_13576" data-name="Path 13576" d="M99.867,63.156H66.828a3.669,3.669,0,0,0-3.671,3.671V99.867a3.669,3.669,0,0,0,3.671,3.671H99.867a3.669,3.669,0,0,0,3.671-3.671V66.828A3.669,3.669,0,0,0,99.867,63.156ZM79.676,74.17H68.663a1.836,1.836,0,0,1,0-3.671H79.676a1.836,1.836,0,0,1,0,3.671Zm18.355,1.835H87.018a1.839,1.839,0,0,1-1.835-1.835V70.5a1.839,1.839,0,0,1,1.835-1.835H98.031A1.839,1.839,0,0,1,99.867,70.5V74.17A1.839,1.839,0,0,1,98.031,76.005ZM79.676,85.183H68.663a1.836,1.836,0,0,1,0-3.671H79.676a1.836,1.836,0,0,1,0,3.671ZM98.031,96.2H87.018a1.835,1.835,0,0,1,0-3.671H98.031a1.835,1.835,0,1,1,0,3.671Zm0-9.177H87.018a1.839,1.839,0,0,1-1.835-1.835V81.511a1.839,1.839,0,0,1,1.835-1.835H98.031a1.839,1.839,0,0,1,1.836,1.835v3.671A1.839,1.839,0,0,1,98.031,87.018ZM79.676,98.031H76.005A1.839,1.839,0,0,1,74.17,96.2V92.525a1.839,1.839,0,0,1,1.835-1.835h3.671a1.839,1.839,0,0,1,1.835,1.835V96.2A1.839,1.839,0,0,1,79.676,98.031Z" transform="translate(-63.156 -63.156)" fill="#1c9c54"/>
</svg>
