<svg xmlns="http://www.w3.org/2000/svg" width="38.009" height="42.759" viewBox="0 0 38.009 42.759">
    <defs>
        <style>
            .cls-1{fill:#fff}.cls-2{fill:#2c50ee}
        </style>
    </defs>
    <g id="surface1" transform="translate(-83.991 -84)">
        <path id="Path_11466" d="M110.71 245.755c-3.423 0-6.384-1.3-9.322-4.1-3.644-3.468-10.183-9.824-10.183-9.824a3.75 3.75 0 0 1-.006-5.5 4.315 4.315 0 0 1 5.885 0l4 4V222h25.338v15.045a8.618 8.618 0 0 1-8.71 8.71z" class="cls-1" data-name="Path 11466" transform="translate(-5.216 -119.788)"/>
        <path id="Path_11467" d="M120.416 217.584v14.253a7.834 7.834 0 0 1-7.918 7.918h-7c-2.018 0-5.122-.4-8.775-3.881-3.6-3.429-10.112-9.757-10.19-9.831a2.96 2.96 0 0 1 0-4.352 3.527 3.527 0 0 1 4.765-.025l2.664 2.661 2.7 2.7v-9.44h23.755M122 216H95.078v7.2l-2.664-2.661a5.109 5.109 0 0 0-6.977 0 4.541 4.541 0 0 0 0 6.645s6.542 6.358 10.189 9.831 6.979 4.319 9.868 4.319h7a9.411 9.411 0 0 0 9.5-9.5z" class="cls-2" data-name="Path 11467" transform="translate(0 -114.58)"/>
        <path id="Path_11468" d="M222 111.041v-17.97A3.075 3.075 0 0 1 225.072 90h.19a3.075 3.075 0 0 1 3.072 3.071v17.97z" class="cls-1" data-name="Path 11468" transform="translate(-119.796 -5.208)"/>
        <path id="Path_11469" d="M220.054 85.584a2.283 2.283 0 0 1 2.281 2.281v17.176h-4.751V87.864a2.283 2.283 0 0 1 2.281-2.281h.19m0-1.584h-.19A3.864 3.864 0 0 0 216 87.864v18.76h7.918v-18.76A3.864 3.864 0 0 0 220.054 84z" class="cls-2" data-name="Path 11469" transform="translate(-114.587)"/>
        <path id="Path_11470" d="M174 132.034v-14.951a3.075 3.075 0 0 1 3.072-3.071h.19a3.075 3.075 0 0 1 3.072 3.071v14.951z" class="cls-1" data-name="Path 11470" transform="translate(-78.13 -26.051)"/>
        <path id="Path_11471" d="M172.054 109.584a2.283 2.283 0 0 1 2.281 2.281v14.159h-4.751v-14.16a2.283 2.283 0 0 1 2.281-2.281h.19m0-1.584h-.19a3.863 3.863 0 0 0-3.865 3.865v15.743h7.918v-15.743a3.863 3.863 0 0 0-3.864-3.864z" class="cls-2" data-name="Path 11471" transform="translate(-72.922 -20.833)"/>
        <path id="Path_11472" d="M270 121.531v-16.46a3.075 3.075 0 0 1 3.072-3.071h.19a3.075 3.075 0 0 1 3.072 3.071v16.46z" class="cls-1" data-name="Path 11472" transform="translate(-161.461 -15.625)"/>
        <path id="Path_11473" d="M268.054 97.584a2.283 2.283 0 0 1 2.281 2.281v15.669h-4.751v-15.67a2.283 2.283 0 0 1 2.281-2.281h.19m0-1.584h-.19A3.863 3.863 0 0 0 264 99.864v17.252h7.918V99.864A3.863 3.863 0 0 0 268.054 96z" class="cls-2" data-name="Path 11473" transform="translate(-156.253 -10.416)"/>
        <path id="Path_11474" d="M318 151.5v-10.429a3.075 3.075 0 0 1 3.072-3.071h.19a3.075 3.075 0 0 1 3.072 3.071V151.5z" class="cls-1" data-name="Path 11474" transform="translate(-203.126 -46.874)"/>
        <path id="Path_11475" d="M316.054 133.584a2.283 2.283 0 0 1 2.281 2.281v9.635h-4.751v-9.635a2.283 2.283 0 0 1 2.281-2.281h.19m0-1.584h-.19a3.863 3.863 0 0 0-3.865 3.864v11.219h7.918v-11.219a3.863 3.863 0 0 0-3.864-3.864z" class="cls-2" data-name="Path 11475" transform="translate(-197.918 -41.665)"/>
        <path id="Path_11476" d="M180 216h23.755v7.918H180z" class="cls-1" data-name="Path 11476" transform="translate(-83.338 -114.58)"/>
        <path id="Path_11477" d="M216.792 204a.794.794 0 0 1 .792.792v1.584a.792.792 0 0 1-1.584 0v-1.584a.794.794 0 0 1 .792-.792z" class="cls-2" data-name="Path 11477" transform="translate(-114.587 -104.163)"/>
        <path id="Path_11478" d="M264.792 204a.794.794 0 0 1 .792.792v1.584a.792.792 0 0 1-1.584 0v-1.584a.794.794 0 0 1 .792-.792z" class="cls-2" data-name="Path 11478" transform="translate(-156.253 -104.163)"/>
        <path id="Path_11479" d="M312.792 204a.794.794 0 0 1 .792.792v1.584a.792.792 0 0 1-1.584 0v-1.584a.794.794 0 0 1 .792-.792z" class="cls-2" data-name="Path 11479" transform="translate(-197.918 -104.163)"/>
    </g>
</svg>
