<svg xmlns="http://www.w3.org/2000/svg" width="15" height="15" viewBox="0 0 15 15">
    <path id="prefix__information" d="M16.856 9.355a7.5 7.5 0 1 0 7.5 7.5 7.5 7.5 0 0 0-7.5-7.5zm1.562 11.625c-.387.151-.694.268-.925.347a2.452 2.452 0 0 1-.8.119A1.6 1.6 0 0 1 15.6 21.1a1.1 1.1 0 0 1-.387-.868 3 3 0 0 1 .03-.416 4.7 4.7 0 0 1 .092-.484l.484-1.706c.042-.164.079-.318.109-.464a2.024 2.024 0 0 0 .042-.4.616.616 0 0 0-.134-.454.762.762 0 0 0-.516-.129 1.42 1.42 0 0 0-.385.057c-.131.04-.243.077-.337.111l.129-.526c.315-.129.617-.238.908-.33a2.717 2.717 0 0 1 .818-.139 1.566 1.566 0 0 1 1.074.337 1.118 1.118 0 0 1 .377.873c0 .074-.007.206-.024.392a2.693 2.693 0 0 1-.1.516l-.481 1.7c-.04.137-.075.293-.107.466a2.56 2.56 0 0 0-.045.4.574.574 0 0 0 .151.464.847.847 0 0 0 .526.122 1.559 1.559 0 0 0 .4-.059 2.316 2.316 0 0 0 .32-.109zm-.087-6.907a1.144 1.144 0 0 1-.808.312 1.161 1.161 0 0 1-.813-.312.993.993 0 0 1-.337-.756 1.015 1.015 0 0 1 .337-.761 1.151 1.151 0 0 1 .813-.315 1.134 1.134 0 0 1 .808.315 1.006 1.006 0 0 1 .337.761.993.993 0 0 1-.337.756z" transform="translate(-9.355 -9.355)" style="fill:#fff"/>
</svg>
