<svg xmlns="http://www.w3.org/2000/svg" width="11.271" height="10.845" viewBox="0 0 11.271 10.845">
  <path id="Path_11755" data-name="Path 11755" d="M64,80v8.857h5.259l-.277,1.4-.126.591.591-.126,1.422-.277L71,90.417l3.925-3.925a1.208,1.208,0,0,0-.856-2.063,1.186,1.186,0,0,0-.4.075V80Zm.805.805h8.052v.805H64.805Zm0,1.61h8.052v2.718l-2.919,2.919H64.805Zm1.208,1.208v.805h.805v-.805Zm1.61,0v.805h4.026v-.805Zm-1.61,1.61v.805h.805v-.805Zm1.61,0v.805h2.416v-.805Zm6.442,0a.4.4,0,0,1,.289.113.393.393,0,0,1,0,.566l-3.762,3.762-.717.151.151-.717,3.762-3.762A.376.376,0,0,1,74.065,85.234Z" transform="translate(-64 -80)" fill="#fff"/>
</svg>
