<?xml version="1.0" encoding="utf-8"?>
<!-- Generator: Adobe Illustrator 24.1.2, SVG Export Plug-In . SVG Version: 6.00 Build 0)  -->
<svg version="1.1" id="Capa_1" xmlns="http://www.w3.org/2000/svg" xmlns:xlink="http://www.w3.org/1999/xlink" x="0px" y="0px"
	 viewBox="0 0 35 35" style="enable-background:new 0 0 35 35;" xml:space="preserve">
<style type="text/css">
	.st0{display:none;fill:#0030F9;}
	.st1{fill:#85CEFF;}
	.st2{fill:none;}
	.st3{fill:#5C8191;}
</style>
<rect class="st0" width="35" height="35"/>
<path class="st1" d="M30,35H5c-2.8,0-5-2.2-5-5V5c0-2.8,2.2-5,5-5h25c2.8,0,5,2.2,5,5v25C35,32.8,32.8,35,30,35z"/>
<path class="st2" d="M5.5,5.5h24v24h-24V5.5z"/>
<path class="st3" d="M16.7,13.4h1.6c0.1,0,0.3-0.3,0.3-0.6v-2.3c0-0.3,0.1-0.6,0.3-0.6h0.7c0.2,0,0.4-0.6,0.2-1l-2-4.4
	c-0.1-0.2-0.3-0.2-0.4,0l-2,4.4c-0.2,0.4,0,1,0.2,1h0.7c0.1,0,0.3,0.3,0.3,0.6v2.3C16.5,13.1,16.6,13.4,16.7,13.4z M16.5,22.2v2.3
	c0,0.3-0.1,0.6-0.3,0.6h-0.7c-0.2,0-0.4,0.6-0.2,1l2,4.4c0.1,0.2,0.3,0.2,0.4,0l2-4.4c0.2-0.4,0-1-0.2-1h-0.7
	c-0.1,0-0.3-0.3-0.3-0.6v-2.3c0-0.3-0.1-0.6-0.3-0.6h-1.6C16.6,21.6,16.5,21.9,16.5,22.2z M13.4,18.3v-1.6c0-0.1-0.3-0.3-0.6-0.3
	h-2.3c-0.3,0-0.6-0.1-0.6-0.3v-0.7c0-0.2-0.6-0.4-1-0.2l-4.4,2c-0.2,0.1-0.2,0.3,0,0.4l4.4,2c0.4,0.2,1,0,1-0.2v-0.7
	c0-0.1,0.3-0.3,0.6-0.3h2.3C13.1,18.5,13.4,18.4,13.4,18.3z M22.2,18.6h2.3c0.3,0,0.6,0.1,0.6,0.3v0.7c0,0.2,0.6,0.4,1,0.2l4.4-2
	c0.2-0.1,0.2-0.3,0-0.4l-4.4-2c-0.4-0.2-1,0-1,0.2v0.7c0,0.1-0.3,0.3-0.6,0.3h-2.3c-0.3,0-0.6,0.1-0.6,0.3v1.6
	C21.6,18.5,21.9,18.6,22.2,18.6z"/>
</svg>
