<svg xmlns="http://www.w3.org/2000/svg" width="14.633" height="14.625" viewBox="0 0 14.633 14.625">
    <path id="prefix__Path_11758" d="M57.9 31.578a4.1 4.1 0 0 0-4.1 4.1c0 2.7 2.664 3.949 3 4.248a3.2 3.2 0 0 1 .736 1.312.373.373 0 0 0 .727 0A3.2 3.2 0 0 1 59 39.923c.334-.3 3-1.552 3-4.248a4.1 4.1 0 0 0-4.1-4.097zM48 33.343a.615.615 0 0 0-.636.615v10.056a1.17 1.17 0 0 0 .848 1.125l3.626 1.036a.756.756 0 0 0 .416 0l3.6-1.027a1.149 1.149 0 0 1 .6-.011l4.191 1.047a.614.614 0 0 0 .764-.594v-6.028l-1.171.935v4.378L56.732 44v-1.857l-1.17-1.643v3.516l-2.927.837v-9.3h.007a5.244 5.244 0 0 1 .183-1.251l-.462.114a1.184 1.184 0 0 1-.606-.009l-3.606-1.033a.64.64 0 0 0-.151-.031zm9.9 1.157a1.171 1.171 0 1 1-1.171 1.171A1.17 1.17 0 0 1 57.9 34.5zm-9.365.192l2.926.835v9.317l-2.926-.835z" data-name="Path 11758" transform="translate(-47.367 -31.578)" style="fill:#fff"/>
</svg>
