<svg xmlns="http://www.w3.org/2000/svg" width="11" height="10.994" viewBox="0 0 11 10.994">
    <g id="prefix__surface1" transform="translate(-47.367 -31.578)">
        <path id="prefix__Path_11758" d="M55.287 31.578a3.079 3.079 0 0 0-3.08 3.08c0 2.026 2 2.968 2.253 3.193a2.409 2.409 0 0 1 .554.987.281.281 0 0 0 .547 0 2.408 2.408 0 0 1 .553-.987c.251-.225 2.253-1.167 2.253-3.193a3.079 3.079 0 0 0-3.08-3.08zm-7.442 1.327a.463.463 0 0 0-.478.462v7.559a.88.88 0 0 0 .638.846l2.726.779a.568.568 0 0 0 .313 0l2.705-.772a.864.864 0 0 1 .454-.009l3.15.787a.462.462 0 0 0 .574-.447v-4.53l-.88.7v3.291l-2.64-.66V39.52l-.88-1.237v2.643l-2.2.629v-6.993h.005a3.942 3.942 0 0 1 .137-.94l-.347.086a.89.89 0 0 1-.455-.007l-2.71-.777a.481.481 0 0 0-.112-.019zm7.442.873a.88.88 0 1 1-.88.88.879.879 0 0 1 .88-.88zm-7.04.144l2.2.627v7l-2.2-.627z" data-name="Path 11758" style="fill:#fff"/>
    </g>
</svg>
