<svg xmlns="http://www.w3.org/2000/svg" width="51" height="45.05" viewBox="0 0 51 45.05">
    <defs>
        <style>
            .cls-1{fill:#2c50ee}
        </style>
    </defs>
    <g id="surface1" transform="translate(158 -223)">
        <path id="Path_11460" d="M18.55 48A2.555 2.555 0 0 0 16 50.55v27.2a2.555 2.555 0 0 0 2.55 2.55h6.073a9.819 9.819 0 0 1-1.7 5.512.852.852 0 0 0 .73 1.288.909.909 0 0 0 .186-.02c6.564-1.458 9.008-5.3 9.722-6.78H39.8v4.25a2.555 2.555 0 0 0 2.55 2.55h10.4a8.641 8.641 0 0 0 7.331 5.94.72.72 0 0 0 .12.01.852.852 0 0 0 .79-1.165 10.307 10.307 0 0 1-.976-4.785h4.435A2.555 2.555 0 0 0 67 84.55v-18.7a2.555 2.555 0 0 0-2.55-2.55H60.2V50.55A2.555 2.555 0 0 0 57.65 48zm0 1.7h39.1a.852.852 0 0 1 .85.85v27.2a.852.852 0 0 1-.85.85H33a.85.85 0 0 0-.807.581c-.013.043-1.341 3.842-6.883 5.728 1.554-3.49.88-5.625.847-5.728a.85.85 0 0 0-.807-.581h-6.8a.852.852 0 0 1-.85-.85v-27.2a.852.852 0 0 1 .85-.85zm6.8 10.2a.85.85 0 1 0 0 1.7h15.3a.85.85 0 1 0 0-1.7zm18.7 0a.85.85 0 1 0 0 1.7h3.4a.85.85 0 1 0 0-1.7zM25.35 65a.85.85 0 1 0 0 1.7h18.7a.85.85 0 1 0 0-1.7zm34.85 0h4.25a.852.852 0 0 1 .85.85v18.7a.852.852 0 0 1-.85.85h-5.1a.855.855 0 0 0-.76.468c-.093.186-.777 1.733.292 5.166a6.689 6.689 0 0 1-4.645-4.924.849.849 0 0 0-.837-.71H42.35a.852.852 0 0 1-.85-.85V80.3h16.15a2.555 2.555 0 0 0 2.55-2.55zm-39.1 8.5a.85.85 0 0 0-.85.85v1.7a.85.85 0 0 0 1.7 0v-1.7a.85.85 0 0 0-.85-.85zm4.25 0a.85.85 0 0 0-.85.85v1.7a.85.85 0 0 0 1.7 0v-1.7a.849.849 0 0 0-.85-.85zm4.25 0a.85.85 0 0 0-.85.85v1.7a.85.85 0 0 0 1.7 0v-1.7a.849.849 0 0 0-.85-.85zm4.25 0a.85.85 0 0 0-.85.85v1.7a.85.85 0 0 0 1.7 0v-1.7a.849.849 0 0 0-.85-.85zm4.25 0a.85.85 0 0 0-.85.85v1.7a.85.85 0 0 0 1.7 0v-1.7a.849.849 0 0 0-.85-.85zm4.25 0a.85.85 0 0 0-.85.85v1.7a.85.85 0 0 0 1.7 0v-1.7a.849.849 0 0 0-.85-.85zm4.25 0a.85.85 0 0 0-.85.85v1.7a.85.85 0 0 0 1.7 0v-1.7a.849.849 0 0 0-.85-.85zm4.25 0a.85.85 0 0 0-.85.85v1.7a.85.85 0 0 0 1.7 0v-1.7a.849.849 0 0 0-.85-.85zm4.25 0a.85.85 0 0 0-.85.85v1.7a.85.85 0 0 0 1.7 0v-1.7a.849.849 0 0 0-.85-.85z" class="cls-1" data-name="Path 11460" transform="translate(-174 175)"/>
    </g>
</svg>
