<svg xmlns="http://www.w3.org/2000/svg" width="24" height="29.717" viewBox="0 0 24 29.717">
    <defs>
        <style>
            .cls-1{fill:#535353}
        </style>
    </defs>
    <g id="surface1" transform="translate(-16.465 -.532)">
        <path id="Path_356" d="M32.516 19.393a1.265 1.265 0 0 1-.838-1.938 8.6 8.6 0 0 0 1.537-3.118 4.258 4.258 0 0 0 1.509-2.808c.086-1.681-.316-1.758-.316-1.758.6-1.834.8-8.715-3.623-7.89-.734-1.447-5.349-2.578-7.5 1.27a8.138 8.138 0 0 0-.635 6.669c-.031.158-.3-.158-.392.829a5.089 5.089 0 0 0 .8 2.951 2.005 2.005 0 0 0 .752.559 7.7 7.7 0 0 0 1.6 3.294 1.84 1.84 0 0 1-.955 1.938c-4.168.8-8 3.114-8 5.619v1.94c0 2.717 6.327 3.3 12.023 3.3s11.977-1.636 11.977-3.3v-1.938c.01-2.505-3.776-4.812-7.939-5.619zm3.456 8.746H30.2v-3.46h5.767z" class="cls-1" data-name="Path 356"/>
    </g>
</svg>
