<svg xmlns="http://www.w3.org/2000/svg" width="31" height="28.615" viewBox="0 0 31 28.615">
    <defs>
        <style>
            .cls-1{fill:#535353}
        </style>
    </defs>
    <g id="surface1" transform="translate(-31.578 -31.578)">
        <path id="Path_355" d="M45.886 31.578a2.383 2.383 0 0 0-2.386 2.385v2.385h7.154v-2.385a2.383 2.383 0 0 0-2.385-2.385zm4.769 4.769v1.193a2.383 2.383 0 0 1-2.385 2.385h-2.384A2.383 2.383 0 0 1 43.5 37.54v-1.192h-9.537a2.383 2.383 0 0 0-2.385 2.385v19.076a2.383 2.383 0 0 0 2.385 2.385h26.231a2.383 2.383 0 0 0 2.385-2.385V38.732a2.383 2.383 0 0 0-2.385-2.385zm-9.538 5.961a1.571 1.571 0 0 1 1.49.806c1.015 0 1.49 1.113 1.49 2.422a3.052 3.052 0 0 1-.261 1.192.664.664 0 0 1 .237.647c-.084.689-.358.862-.535.876a2.779 2.779 0 0 1-.932 1.588v1.081c.447 1.453 2.627.74 3.279 3.311h-9.537c.657-2.571 2.832-1.858 3.279-3.311v-1.08a2.829 2.829 0 0 1-.931-1.588c-.173-.014-.452-.186-.531-.876a.663.663 0 0 1 .233-.647 3.43 3.43 0 0 1-.261-1.192c-.001-1.766.874-3.228 2.98-3.228zm8.346 4.769h7.154a1.192 1.192 0 1 1 0 2.385h-7.154a1.192 1.192 0 1 1 0-2.385zm0 4.769h7.154a1.192 1.192 0 1 1 0 2.385h-7.154a1.192 1.192 0 1 1 0-2.385z" class="cls-1" data-name="Path 355"/>
    </g>
</svg>
