<svg xmlns="http://www.w3.org/2000/svg" width="16.09" height="20.917" viewBox="0 0 16.09 20.917">
    <g id="prefix__surface1" transform="translate(1)">
        <path id="prefix__Path_11447" d="M104.045 48a1.608 1.608 0 0 0-1.609 1.609 1.409 1.409 0 0 0 .025.2 6.454 6.454 0 0 0-4.852 6.235v7.24a.79.79 0 0 1-.8.8H96V65.7h5.782a2.374 2.374 0 0 0-.151.8 2.413 2.413 0 1 0 4.827 0 2.373 2.373 0 0 0-.151-.8h5.782v-1.61h-.8a.79.79 0 0 1-.8-.8v-7.019a6.669 6.669 0 0 0-4.852-6.461 1.4 1.4 0 0 0 .025-.2 1.608 1.608 0 0 0-1.617-1.61zm-.352 3.218c.116-.009.233 0 .352 0h.151a4.974 4.974 0 0 1 4.676 5.053v7.014a2.374 2.374 0 0 0 .151.8h-9.956a2.373 2.373 0 0 0 .151-.8v-7.24a4.831 4.831 0 0 1 4.475-4.827zm.352 14.481a.8.8 0 1 1-.8.8.794.794 0 0 1 .8-.799z" data-name="Path 11447" transform="translate(-97 -48)" style="fill:#fff"/>
    </g>
</svg>
