<?xml version="1.0" encoding="UTF-8"?>
<svg xmlns="http://www.w3.org/2000/svg" xmlns:xlink="http://www.w3.org/1999/xlink" width="480pt" height="480pt" viewBox="0 0 480 480" version="1.1">
<g id="surface1">
<path style=" stroke:none;fill-rule:nonzero;fill:#5B7BD6;fill-opacity:1;" d="M 95.835938 89.742188 C 94.21875 89.71875 92.648438 90.351563 91.5 91.5 C 89.15625 93.84375 89.15625 97.664063 91.5 100.007813 C 93.84375 102.328125 97.640625 102.328125 99.984375 100.007813 C 102.328125 97.664063 102.328125 93.84375 99.984375 91.5 C 98.882813 90.398438 97.40625 89.789063 95.835938 89.742188 Z M 384.328125 89.742188 C 382.710938 89.742188 381.140625 90.375 379.992188 91.5 C 377.671875 93.84375 377.671875 97.664063 379.992188 100.007813 C 382.335938 102.328125 386.15625 102.328125 388.5 100.007813 C 390.820313 97.664063 390.820313 93.84375 388.5 91.5 C 387.375 90.398438 385.898438 89.765625 384.328125 89.742188 Z M 401.929688 109.78125 C 401.789063 109.78125 401.648438 109.804688 401.53125 109.804688 C 400.3125 109.875 399.140625 110.296875 398.179688 111.023438 C 395.554688 113.0625 395.0625 116.8125 397.101563 119.4375 C 399.117188 122.085938 402.867188 122.578125 405.492188 120.5625 C 408.140625 118.523438 408.632813 114.773438 406.59375 112.125 C 405.492188 110.695313 403.78125 109.828125 401.929688 109.78125 Z M 78.070313 109.804688 C 76.242188 109.828125 74.53125 110.695313 73.40625 112.148438 C 71.390625 114.773438 71.882813 118.546875 74.507813 120.5625 C 77.132813 122.578125 80.90625 122.085938 82.921875 119.460938 C 84.9375 116.835938 84.445313 113.0625 81.820313 111.046875 C 80.742188 110.226563 79.429688 109.78125 78.070313 109.804688 Z M 120.023438 114.023438 C 86.789063 145.710938 66 190.453125 66 240 C 66 289.546875 86.789063 334.289063 120.023438 365.976563 L 128.320313 357.28125 C 97.335938 327.773438 78 286.195313 78 240 C 78 193.804688 97.335938 152.226563 128.320313 122.71875 Z M 359.976563 114.023438 L 351.679688 122.71875 C 382.664063 152.226563 402 193.804688 402 240 C 402 286.195313 382.664063 327.773438 351.679688 357.28125 L 359.976563 365.976563 C 393.210938 334.289063 414 289.546875 414 240 C 414 190.453125 393.210938 145.710938 359.976563 114.023438 Z M 416.53125 132 C 415.523438 132.023438 414.539063 132.304688 413.648438 132.796875 C 412.289063 133.59375 411.28125 134.90625 410.859375 136.453125 C 410.460938 137.976563 410.671875 139.617188 411.46875 141 C 413.132813 143.859375 416.789063 144.84375 419.648438 143.179688 C 422.53125 141.539063 423.515625 137.859375 421.851563 135 C 420.75 133.101563 418.710938 131.953125 416.53125 132 Z M 63.046875 132 C 61.007813 132.117188 59.15625 133.242188 58.125 135 C 56.484375 137.859375 57.46875 141.539063 60.328125 143.179688 C 61.710938 144 63.351563 144.210938 64.875 143.789063 C 66.421875 143.390625 67.734375 142.382813 68.53125 141 C 70.195313 138.140625 69.1875 134.460938 66.328125 132.820313 C 65.34375 132.234375 64.195313 131.953125 63.046875 132 Z M 155.25 149.15625 C 153.609375 149.109375 152.039063 149.742188 150.914063 150.914063 C 148.570313 153.234375 148.570313 157.054688 150.914063 159.375 C 153.234375 161.71875 157.054688 161.71875 159.375 159.375 C 161.71875 157.054688 161.71875 153.234375 159.375 150.914063 C 158.273438 149.789063 156.796875 149.179688 155.25 149.15625 Z M 324.9375 149.15625 C 323.320313 149.132813 321.75 149.765625 320.601563 150.914063 C 318.257813 153.234375 318.257813 157.054688 320.601563 159.375 C 322.945313 161.71875 326.742188 161.71875 329.085938 159.375 C 331.429688 157.054688 331.429688 153.234375 329.085938 150.914063 C 327.984375 149.8125 326.484375 149.179688 324.9375 149.15625 Z M 51.65625 155.929688 C 49.195313 155.882813 46.945313 157.335938 45.984375 159.632813 C 44.71875 162.703125 46.171875 166.195313 49.242188 167.460938 C 52.3125 168.75 55.804688 167.296875 57.09375 164.226563 C 57.679688 162.75 57.679688 161.109375 57.070313 159.632813 C 56.460938 158.15625 55.289063 156.984375 53.8125 156.375 C 53.132813 156.09375 52.40625 155.953125 51.65625 155.929688 Z M 428.53125 155.929688 C 427.710938 155.929688 426.914063 156.070313 426.1875 156.375 C 423.117188 157.664063 421.664063 161.15625 422.929688 164.226563 C 424.195313 167.296875 427.710938 168.75 430.78125 167.460938 C 433.828125 166.195313 435.28125 162.703125 434.015625 159.632813 C 433.101563 157.40625 430.921875 155.953125 428.53125 155.929688 Z M 339.84375 167.320313 C 338.625 167.296875 337.453125 167.648438 336.445313 168.328125 C 335.109375 169.21875 334.195313 170.578125 333.890625 172.148438 C 333.585938 173.71875 333.914063 175.335938 334.78125 176.648438 C 336.632813 179.414063 340.359375 180.164063 343.125 178.3125 C 345.867188 176.460938 346.617188 172.757813 344.765625 169.992188 C 343.664063 168.351563 341.835938 167.34375 339.84375 167.320313 Z M 140.34375 167.34375 C 138.28125 167.296875 136.359375 168.304688 135.234375 169.992188 C 133.40625 172.757813 134.132813 176.484375 136.898438 178.3125 C 139.664063 180.164063 143.367188 179.414063 145.21875 176.648438 C 147.070313 173.90625 146.320313 170.179688 143.554688 168.351563 C 142.617188 167.695313 141.492188 167.34375 140.34375 167.34375 Z M 173.835938 170.53125 C 155.507813 188.015625 144 212.671875 144 240 C 144 267.328125 155.507813 291.984375 173.835938 309.46875 L 182.132813 300.773438 C 166.054688 285.46875 156 263.953125 156 240 C 156 216.046875 166.03125 194.554688 182.132813 179.226563 Z M 306.164063 170.53125 L 297.867188 179.226563 C 313.96875 194.554688 324 216.046875 324 240 C 324 263.953125 313.945313 285.46875 297.867188 300.773438 L 306.164063 309.46875 C 324.492188 291.984375 336 267.328125 336 240 C 336 212.671875 324.492188 188.015625 306.164063 170.53125 Z M 42.890625 181.195313 C 40.195313 181.21875 37.851563 183.046875 37.171875 185.648438 C 36.304688 188.859375 38.203125 192.140625 41.390625 193.007813 C 44.601563 193.851563 47.882813 191.953125 48.75 188.742188 C 49.617188 185.554688 47.71875 182.273438 44.507813 181.40625 C 43.992188 181.265625 43.453125 181.195313 42.890625 181.195313 Z M 437.085938 181.21875 C 436.945313 181.195313 436.804688 181.21875 436.6875 181.21875 C 436.265625 181.242188 435.890625 181.3125 435.492188 181.40625 C 432.28125 182.273438 430.382813 185.554688 431.25 188.765625 C 432.117188 191.976563 435.398438 193.875 438.585938 193.007813 C 441.796875 192.140625 443.695313 188.859375 442.851563 185.648438 C 442.148438 183.046875 439.804688 181.242188 437.085938 181.21875 Z M 129.257813 188.0625 C 126.773438 188.015625 124.523438 189.492188 123.585938 191.789063 C 122.320313 194.835938 123.773438 198.351563 126.84375 199.617188 C 129.890625 200.882813 133.40625 199.429688 134.671875 196.382813 C 135.9375 193.3125 134.484375 189.796875 131.4375 188.53125 C 130.734375 188.25 130.007813 188.085938 129.257813 188.0625 Z M 350.90625 188.0625 C 350.109375 188.0625 349.3125 188.226563 348.5625 188.53125 C 345.515625 189.796875 344.0625 193.289063 345.328125 196.359375 C 345.9375 197.835938 347.109375 199.007813 348.5625 199.617188 C 350.039063 200.226563 351.703125 200.226563 353.15625 199.617188 C 356.226563 198.351563 357.679688 194.835938 356.414063 191.789063 C 355.5 189.5625 353.320313 188.085938 350.90625 188.0625 Z M 37.5 207.375 C 34.570313 207.492188 32.15625 209.695313 31.78125 212.601563 C 31.359375 215.882813 33.65625 218.882813 36.9375 219.304688 C 40.242188 219.75 43.242188 217.453125 43.6875 214.148438 C 43.898438 212.578125 43.476563 210.984375 42.492188 209.71875 C 41.53125 208.453125 40.101563 207.632813 38.53125 207.421875 C 38.179688 207.375 37.851563 207.351563 37.5 207.375 Z M 442.054688 207.375 C 441.867188 207.398438 441.65625 207.398438 441.46875 207.445313 C 439.898438 207.632813 438.46875 208.476563 437.484375 209.742188 C 436.523438 210.984375 436.101563 212.601563 436.3125 214.171875 C 436.734375 217.453125 439.757813 219.75 443.039063 219.328125 C 446.320313 218.90625 448.617188 215.882813 448.195313 212.601563 C 447.796875 209.554688 445.148438 207.304688 442.054688 207.375 Z M 240 210 C 223.5 210 210 223.5 210 240 C 210 256.5 223.5 270 240 270 C 256.5 270 270 256.5 270 240 C 270 223.5 256.5 210 240 210 Z M 357.726563 210.585938 C 357.328125 210.585938 356.929688 210.632813 356.53125 210.703125 C 353.273438 211.359375 351.164063 214.5 351.820313 217.757813 C 352.476563 221.015625 355.617188 223.125 358.875 222.46875 C 362.132813 221.8125 364.242188 218.671875 363.585938 215.414063 C 363.023438 212.625 360.585938 210.609375 357.726563 210.585938 Z M 122.460938 210.585938 C 119.53125 210.515625 117 212.554688 116.4375 215.4375 C 115.78125 218.671875 117.890625 221.835938 121.125 222.46875 C 124.382813 223.125 127.546875 221.015625 128.179688 217.78125 C 128.835938 214.523438 126.726563 211.359375 123.46875 210.726563 C 123.140625 210.65625 122.8125 210.609375 122.460938 210.585938 Z M 240 222 C 250.007813 222 258 229.992188 258 240 C 258 250.007813 250.007813 258 240 258 C 229.992188 258 222 250.007813 222 240 C 222 238.757813 222.117188 237.539063 222.375 236.34375 C 224.039063 228.117188 231.234375 222 240 222 Z M 36 234 C 32.695313 234 30 236.695313 30 240 C 30 243.304688 32.695313 246 36 246 C 39.304688 246 42 243.304688 42 240 C 42 236.695313 39.304688 234 36 234 Z M 120 234 C 116.695313 234 114 236.695313 114 240 C 114 243.304688 116.695313 246 120 246 C 123.304688 246 126 243.304688 126 240 C 126 236.695313 123.304688 234 120 234 Z M 360 234 C 356.695313 234 354 236.695313 354 240 C 354 243.304688 356.695313 246 360 246 C 363.304688 246 366 243.304688 366 240 C 366 236.695313 363.304688 234 360 234 Z M 444 234 C 440.695313 234 438 236.695313 438 240 C 438 243.304688 440.695313 246 444 246 C 447.304688 246 450 243.304688 450 240 C 450 236.695313 447.304688 234 444 234 Z M 357.84375 257.414063 C 354.9375 257.320313 352.382813 259.359375 351.820313 262.21875 C 351.515625 263.789063 351.84375 265.40625 352.710938 266.742188 C 353.601563 268.054688 354.984375 268.96875 356.53125 269.273438 C 359.789063 269.929688 362.953125 267.820313 363.585938 264.5625 C 363.914063 263.015625 363.585938 261.398438 362.695313 260.0625 C 361.804688 258.75 360.445313 257.835938 358.875 257.53125 C 358.546875 257.460938 358.195313 257.414063 357.84375 257.414063 Z M 122.34375 257.414063 C 121.921875 257.414063 121.523438 257.460938 121.125 257.53125 C 117.890625 258.1875 115.78125 261.328125 116.4375 264.585938 C 117.070313 267.84375 120.234375 269.953125 123.46875 269.296875 C 126.726563 268.640625 128.835938 265.5 128.179688 262.242188 C 127.640625 259.453125 125.179688 257.4375 122.34375 257.414063 Z M 37.546875 260.625 C 37.359375 260.648438 37.148438 260.648438 36.960938 260.695313 C 33.679688 261.117188 31.359375 264.117188 31.78125 267.398438 C 32.226563 270.703125 35.226563 273 38.53125 272.578125 C 41.8125 272.15625 44.109375 269.132813 43.6875 265.851563 C 43.289063 262.804688 40.640625 260.554688 37.546875 260.625 Z M 442.007813 260.648438 C 439.101563 260.765625 436.6875 262.96875 436.3125 265.875 C 436.101563 267.445313 436.523438 269.039063 437.484375 270.304688 C 438.46875 271.570313 439.898438 272.390625 441.46875 272.601563 C 443.039063 272.8125 444.65625 272.390625 445.898438 271.40625 C 447.164063 270.445313 448.007813 269.015625 448.21875 267.445313 C 448.640625 264.140625 446.320313 261.140625 443.039063 260.71875 C 442.6875 260.671875 442.359375 260.648438 442.007813 260.648438 Z M 351 279.914063 C 348.515625 279.867188 346.265625 281.320313 345.328125 283.617188 C 344.0625 286.6875 345.515625 290.179688 348.5625 291.46875 C 351.632813 292.734375 355.148438 291.28125 356.414063 288.210938 C 357.679688 285.140625 356.226563 281.648438 353.15625 280.382813 C 352.476563 280.078125 351.75 279.9375 351 279.914063 Z M 129.1875 279.9375 C 128.367188 279.914063 127.59375 280.078125 126.84375 280.382813 C 123.773438 281.648438 122.320313 285.164063 123.585938 288.210938 C 124.875 291.28125 128.367188 292.734375 131.4375 291.46875 C 134.507813 290.203125 135.960938 286.6875 134.695313 283.617188 C 133.757813 281.390625 131.578125 279.9375 129.1875 279.9375 Z M 43.171875 286.804688 C 42.585938 286.78125 41.976563 286.851563 41.390625 286.992188 C 39.867188 287.414063 38.554688 288.421875 37.757813 289.804688 C 36.960938 291.164063 36.726563 292.804688 37.148438 294.351563 C 37.570313 295.898438 38.578125 297.210938 39.9375 298.007813 C 41.320313 298.804688 42.960938 299.015625 44.507813 298.59375 C 47.71875 297.726563 49.617188 294.445313 48.75 291.257813 C 48.070313 288.703125 45.820313 286.898438 43.171875 286.804688 Z M 436.992188 286.804688 C 434.296875 286.828125 431.953125 288.65625 431.25 291.257813 C 430.828125 292.804688 431.039063 294.445313 431.835938 295.828125 C 432.632813 297.1875 433.945313 298.195313 435.492188 298.617188 C 437.039063 299.039063 438.679688 298.804688 440.039063 298.007813 C 441.421875 297.210938 442.429688 295.898438 442.851563 294.375 C 443.695313 291.164063 441.796875 287.882813 438.585938 287.015625 C 438.070313 286.875 437.53125 286.804688 436.992188 286.804688 Z M 140.296875 300.65625 C 139.078125 300.65625 137.90625 301.007813 136.898438 301.6875 C 134.15625 303.515625 133.40625 307.242188 135.257813 310.007813 C 137.085938 312.75 140.8125 313.5 143.554688 311.648438 C 146.320313 309.796875 147.070313 306.09375 145.21875 303.328125 C 144.117188 301.6875 142.289063 300.679688 140.296875 300.65625 Z M 339.890625 300.65625 C 337.851563 300.609375 335.929688 301.617188 334.78125 303.328125 C 332.953125 306.09375 333.703125 309.796875 336.445313 311.648438 C 339.210938 313.5 342.914063 312.75 344.765625 310.007813 C 345.65625 308.671875 345.984375 307.054688 345.65625 305.484375 C 345.351563 303.914063 344.4375 302.554688 343.125 301.664063 C 342.164063 301.03125 341.039063 300.679688 339.890625 300.65625 Z M 428.601563 312.046875 C 426.117188 312 423.867188 313.453125 422.929688 315.75 C 421.664063 318.820313 423.117188 322.3125 426.1875 323.601563 C 429.234375 324.867188 432.75 323.414063 434.015625 320.34375 C 435.28125 317.273438 433.828125 313.78125 430.78125 312.492188 C 430.078125 312.210938 429.351563 312.070313 428.601563 312.046875 Z M 51.5625 312.070313 C 50.765625 312.070313 49.992188 312.210938 49.242188 312.539063 C 46.171875 313.78125 44.71875 317.296875 45.984375 320.34375 C 46.59375 321.820313 47.765625 322.992188 49.21875 323.601563 C 50.695313 324.210938 52.359375 324.210938 53.8125 323.625 C 56.882813 322.335938 58.335938 318.84375 57.070313 315.773438 C 56.15625 313.546875 53.976563 312.09375 51.5625 312.070313 Z M 155.226563 318.84375 C 153.609375 318.820313 152.039063 319.453125 150.914063 320.601563 C 149.765625 321.726563 149.132813 323.25 149.132813 324.84375 C 149.132813 326.4375 149.765625 327.960938 150.914063 329.085938 C 153.234375 331.429688 157.054688 331.429688 159.375 329.085938 C 160.523438 327.960938 161.15625 326.4375 161.15625 324.84375 C 161.15625 323.25 160.523438 321.726563 159.375 320.601563 C 158.273438 319.5 156.796875 318.867188 155.226563 318.84375 Z M 324.9375 318.84375 C 323.320313 318.820313 321.75 319.453125 320.601563 320.625 C 318.257813 322.945313 318.257813 326.765625 320.601563 329.085938 C 322.945313 331.429688 326.742188 331.429688 329.085938 329.085938 C 331.429688 326.765625 331.429688 322.945313 329.085938 320.625 C 327.984375 319.5 326.507813 318.890625 324.9375 318.84375 Z M 63.1875 336 C 62.179688 336.023438 61.195313 336.28125 60.328125 336.796875 C 57.46875 338.460938 56.484375 342.117188 58.125 345 C 59.789063 347.859375 63.46875 348.84375 66.328125 347.179688 C 67.710938 346.40625 68.71875 345.09375 69.117188 343.546875 C 69.539063 342 69.328125 340.359375 68.53125 339 C 67.429688 337.078125 65.390625 335.929688 63.1875 336 Z M 416.367188 336.023438 C 414.351563 336.117188 412.5 337.242188 411.46875 339 C 409.804688 341.882813 410.789063 345.539063 413.648438 347.203125 C 415.03125 348 416.671875 348.210938 418.21875 347.8125 C 419.765625 347.390625 421.078125 346.382813 421.875 345 C 423.515625 342.140625 422.53125 338.484375 419.648438 336.820313 C 418.664063 336.234375 417.515625 335.976563 416.367188 336.023438 Z M 401.742188 358.148438 C 399.914063 358.195313 398.203125 359.0625 397.101563 360.492188 C 395.0625 363.140625 395.578125 366.914063 398.203125 368.90625 C 400.828125 370.945313 404.601563 370.453125 406.617188 367.804688 C 408.632813 365.179688 408.140625 361.40625 405.492188 359.414063 C 404.4375 358.570313 403.101563 358.148438 401.742188 358.148438 Z M 78.28125 358.171875 C 78.117188 358.171875 77.976563 358.171875 77.835938 358.195313 C 76.640625 358.242188 75.46875 358.6875 74.53125 359.414063 C 71.882813 361.429688 71.390625 365.203125 73.40625 367.828125 C 75.421875 370.453125 79.195313 370.96875 81.820313 368.929688 C 84.445313 366.9375 84.960938 363.164063 82.945313 360.539063 C 81.820313 359.0625 80.109375 358.195313 78.28125 358.171875 Z M 384.328125 378.257813 C 382.710938 378.234375 381.140625 378.867188 379.992188 379.992188 C 377.671875 382.335938 377.671875 386.15625 379.992188 388.5 C 382.335938 390.820313 386.15625 390.820313 388.5 388.5 C 390.820313 386.15625 390.820313 382.335938 388.5 379.992188 C 387.375 378.890625 385.898438 378.257813 384.328125 378.257813 Z M 95.835938 378.257813 C 94.21875 378.234375 92.648438 378.867188 91.5 379.992188 C 90.375 381.140625 89.742188 382.664063 89.742188 384.257813 C 89.742188 385.851563 90.375 387.375 91.5 388.5 C 92.625 389.625 94.148438 390.257813 95.742188 390.257813 C 97.335938 390.257813 98.859375 389.625 100.007813 388.5 C 101.132813 387.375 101.765625 385.851563 101.765625 384.257813 C 101.765625 382.664063 101.132813 381.140625 100.007813 379.992188 C 98.882813 378.914063 97.40625 378.28125 95.835938 378.257813 Z "/>
</g>
</svg>
