<svg xmlns="http://www.w3.org/2000/svg" id="surface1" width="24.785" height="33.277" viewBox="0 0 24.785 33.277">
    <defs>
        <style>
            .cls-1{fill:#535353}
        </style>
    </defs>
    <path id="Path_3" d="M28.15 0a8.45 8.45 0 0 0-6.935 3 11.347 11.347 0 0 0-2.077 7.12v1.4h3.38v-1.4a7.284 7.284 0 0 1 1.2-4.56c.792-1 2.068-1.72 4.436-1.72s3.648.685 4.435 1.68a7.379 7.379 0 0 1 1.2 4.6v1.4h3.38v-1.4a11.4 11.4 0 0 0-2.077-7.16A8.451 8.451 0 0 0 28.15 0zm-9.012 12.8a3.633 3.633 0 0 0-3.38 3.84v12.8a3.633 3.633 0 0 0 3.38 3.84h18.024a3.633 3.633 0 0 0 3.38-3.84v-12.8a3.633 3.633 0 0 0-3.38-3.84zm2.253 7.68a2.42 2.42 0 0 1 2.253 2.559 2.42 2.42 0 0 1-2.253 2.56 2.42 2.42 0 0 1-2.253-2.56 2.419 2.419 0 0 1 2.253-2.56zm6.76 0a2.42 2.42 0 0 1 2.249 2.558 2.42 2.42 0 0 1-2.25 2.562 2.42 2.42 0 0 1-2.253-2.56 2.419 2.419 0 0 1 2.253-2.561zm6.759 0a2.419 2.419 0 0 1 2.253 2.559 2.272 2.272 0 1 1-4.506 0 2.42 2.42 0 0 1 2.252-2.56z" class="cls-1" data-name="Path 3" transform="translate(-15.758)"/>
</svg>
