<svg xmlns="http://www.w3.org/2000/svg" width="30" height="32.188" viewBox="0 0 30 32.188">
    <defs>
        <style>
            .cls-1{fill:#535353}
        </style>
    </defs>
    <g id="surface1" transform="translate(-9.279 -1.505)">
        <path id="Path_358" d="M35.919 23.909C33.976 22.246 32 21.235 30.08 22.9l-1.148 1c-.839.731-2.4 4.136-8.43-2.807-6.03-6.928-2.443-8.007-1.6-8.729l1.153-1.006c1.909-1.663 1.188-3.758-.191-5.917l-.83-1.305c-1.383-2.149-2.895-3.562-4.808-1.9l-1.035.908A9.694 9.694 0 0 0 9.4 9.567c-.692 4.568 1.492 9.8 6.482 15.544s9.872 8.631 14.494 8.582a9.762 9.762 0 0 0 6.894-2.856l1.035-.907c1.914-1.658.726-3.351-1.222-5.014z" class="cls-1" data-name="Path 358"/>
    </g>
</svg>
