<svg xmlns="http://www.w3.org/2000/svg" width="15" height="16.721" viewBox="0 0 15 16.721">
    <path id="prefix__reports" d="M69.445 19.84v16.024h7.408l-.071.252a.31.31 0 0 0 .244.419.153.153 0 0 0 .174 0l2.09-.558c.069 0 .1-.034.174-.1l4.459-4.46.1-.068a1.431 1.431 0 0 0 0-2.022 1.312 1.312 0 0 0-1.008-.416 1.414 1.414 0 0 0-.942.382l-.069.034-.022.022v-5.121L77.6 19.84zm8.012.836l3.692 3.693h-3.692zm2.09 6.48a.7.7 0 0 1 0 1.393.646.646 0 0 1-.1-.011l-2.036 2.546a.667.667 0 0 1 .049.252.7.7 0 1 1-1.393 0 .667.667 0 0 1 .038-.216l-1.987-2.236a.707.707 0 0 1-.141.014.7.7 0 0 1-.178-.026l-1.241 1.241a.7.7 0 1 1-.671-.518.7.7 0 0 1 .178.026l1.235-1.243a.7.7 0 1 1 1.37-.178.668.668 0 0 1-.038.216l1.987 2.236a.7.7 0 0 1 .142-.014.646.646 0 0 1 .1.011L78.9 28.1a.693.693 0 0 1 .648-.948zm3.472 2.444a.771.771 0 0 1 .523.208.708.708 0 0 1 .034.976l-1.011-1.01a.738.738 0 0 1 .454-.174zm-.977.661l1.045 1.045-3.8 3.8-1.042-1.006zM77.9 34.758l.731.732-1.008.278z" transform="translate(-69.445 -19.84)" style="fill:#fff"/>
</svg>
