<svg xmlns="http://www.w3.org/2000/svg" width="52" height="45.301" viewBox="0 0 52 45.301">
    <defs>
        <style>
            .cls-1{fill:#2c50ee}
        </style>
    </defs>
    <g id="surface1" transform="translate(.093 -36.977)">
        <path id="Path_11462" d="M25.745 33.99a1.029 1.029 0 0 0-.747.52L.047 77.719a1.041 1.041 0 0 0 .91 1.559h49.9a1.041 1.041 0 0 0 .91-1.559L26.817 34.51a1.038 1.038 0 0 0-1.072-.52zm.163 3.119L49.039 77.2H2.776zm-1.2 12.963a.329.329 0 0 0-.357.357v15.042a.354.354 0 0 0 .357.39h2.4a.354.354 0 0 0 .357-.39V50.429a.329.329 0 0 0-.357-.357zM24.48 68.85a.346.346 0 0 0-.195.357v2.729a.329.329 0 0 0 .357.357h2.534a.329.329 0 0 0 .357-.357v-2.729a.329.329 0 0 0-.357-.357H24.64a.54.54 0 0 0-.162-.001z" class="cls-1" data-name="Path 11462" transform="translate(0 3)"/>
    </g>
</svg>
