<svg xmlns="http://www.w3.org/2000/svg" width="15" height="15" viewBox="0 0 15 15">
    <path id="prefix__Path_12889" d="M0 0v13.269L4.039 15 7.5 13.269l3.443 1.478.595.252L15 13.269V0l-2.975 1.478a3.62 3.62 0 01.253 1.172l1.568-.775v10.673L11.5 13.72l-.685-.288c-.485-2.689-2.069-3.173-3.317-3.173-.314 0-.559.372-1.154.036-1.005-.566-.683-2.127-2.308-2.217a4.2 4.2 0 00-2.882-1.173V1.749l2.434 1.046a1.121 1.121 0 00.451.09 1.187 1.187 0 00.523-.126l.469-.235A3.568 3.568 0 015.517.992l-1.478.739zm8.654.054a2.778 2.778 0 00-2.777 2.777c0 1.532 2.416 4.284 2.416 6.346h.721c0-2.055 2.416-4.938 2.416-6.346A2.776 2.776 0 008.654.054zm0 1.569A1.215 1.215 0 019.88 2.831a1.226 1.226 0 01-2.452 0 1.215 1.215 0 011.226-1.208z" data-name="Path 12889" style="fill:#585858"/>
</svg>
