<svg xmlns="http://www.w3.org/2000/svg" width="20.445" height="21" viewBox="0 0 20.445 21">
    <g id="prefix__surface1" transform="translate(-1)">
        <path id="prefix__Path_11449" d="M61.451 48l-.126.656-.48 2.4a8.029 8.029 0 0 0-2.095 1.237l-2.35-.81-.631-.2-.328.581-1.615 2.776-.328.581.48.429 1.817 1.59a7.883 7.883 0 0 0-.151 1.262 7.883 7.883 0 0 0 .151 1.262l-1.817 1.59-.48.429.328.581 1.615 2.776.328.581.631-.2 2.347-.808a8.027 8.027 0 0 0 2.095 1.237l.48 2.4.126.656h4.543l.126-.656.48-2.4a8.027 8.027 0 0 0 2.095-1.237l2.347.808.631.2.33-.583 1.615-2.776.328-.581-.48-.429-1.817-1.59A7.881 7.881 0 0 0 71.8 58.5a7.881 7.881 0 0 0-.151-1.262l1.817-1.59.48-.429-.328-.581L72 51.862l-.328-.581-.631.2-2.347.808a8.028 8.028 0 0 0-2.094-1.235l-.48-2.4-.126-.654zm1.313 1.615h1.918l.4 2.095.1.48.454.151a6.475 6.475 0 0 1 2.448 1.413l.353.328.454-.151 2.044-.707.959 1.641-1.609 1.435-.379.3.126.48a6.672 6.672 0 0 1 0 2.827l-.1.48.353.3 1.615 1.448-.959 1.641-2.041-.707-.454-.151-.353.328a6.474 6.474 0 0 1-2.448 1.413l-.454.151-.1.48-.4 2.095h-1.928l-.4-2.095-.1-.48-.454-.151a6.475 6.475 0 0 1-2.448-1.413L59 62.917l-.454.151-2.044.707-.959-1.641L57.16 60.7l.379-.3-.126-.48a6.672 6.672 0 0 1 0-2.827l.126-.48-.379-.3-1.615-1.439.959-1.641 2.044.707.454.151.353-.328a6.476 6.476 0 0 1 2.445-1.422l.454-.151.1-.48zm.959 4.846a4.038 4.038 0 1 0 4.038 4.039 4.05 4.05 0 0 0-4.039-4.038zm0 1.615A2.423 2.423 0 1 1 61.3 58.5a2.412 2.412 0 0 1 2.422-2.423z" data-name="Path 11449" transform="translate(-52.5 -48)" style="fill:#fff"/>
    </g>
</svg>
