<svg xmlns="http://www.w3.org/2000/svg" width="15" height="13.695" viewBox="0 0 15 13.695">
    <path id="prefix__Path_12890" d="M34.674 39.73a.323.323 0 00-.329 0l-3.106 1.87-3.754-1.876a.328.328 0 00-.3.005L23.753 41.6l-3.43-1.871a.327.327 0 00-.483.287V51.1a.327.327 0 00.169.287l3.591 1.955a.33.33 0 00.312 0l3.438-1.875 3.76 1.88a.335.335 0 00.147.034.331.331 0 00.168-.046l3.261-1.956a.328.328 0 00.158-.28V40.012a.322.322 0 00-.17-.282zm-9.291 3.544h.978v.652l-.978.652-.326-.652zm0 4.891l-.326.326-.326 1.631-.652-.326-.326-1.631-.652-.652.326-.652-.978-.978-.326-1.3h-.653v-.326l.652-.652h.652l1.956-.326v.321l-.326.326.652.652-1.3 1.3v.652l1.3.326.652.652zm7.174 1.631l-.652-.652h-.652v-.652l1.3-.652.326.978zm-.326-5.217l.326.978-.652.652-.326.652-.652-.652-.326.652-.326-.652-.978.652-.652-.652h-.652l.652.326.652.978v.652l-.978 1.957-.652-.652-.326-1.63-.978-.652.326-.978 1.3-.978V44.9l-.978.652v-.978l.978-.652 2.283-.326 2.935.326z" data-name="Path 12890" transform="translate(-19.84 -39.686)" style="fill:#585858"/>
</svg>
