<svg xmlns="http://www.w3.org/2000/svg" width="9.769" height="11.814" viewBox="0 0 9.769 11.814">
    <g id="prefix__surface1" transform="translate(-23.637)">
        <path id="prefix__Path_11759" d="M25 0a1.363 1.363 0 0 0-1.363 1.363v9.087A1.363 1.363 0 0 0 25 11.814h6.361a1.363 1.363 0 0 0 1.363-1.363V8.093l-.909.8v1.557a.455.455 0 0 1-.454.454H25a.455.455 0 0 1-.454-.454V1.363A.455.455 0 0 1 25 .909h6.361a.455.455 0 0 1 .454.454v1.562l.909.8V1.363A1.363 1.363 0 0 0 31.361 0zm4.771 2.939c-.114.034-.227.149-.227.454v1.15h-2.727a.455.455 0 0 0-.454.457v1.816a.455.455 0 0 0 .454.454h2.726v1.136c0 .582.454.454.454.454l3.408-2.953L30 2.953a.378.378 0 0 0-.229-.014z" data-name="Path 11759" style="fill:#fff"/>
    </g>
</svg>
