<?xml version="1.0" encoding="UTF-8"?>
<svg xmlns="http://www.w3.org/2000/svg" xmlns:xlink="http://www.w3.org/1999/xlink" width="500pt" height="500pt" viewBox="0 0 500 500" version="1.1">
<g id="surface1">
<path style=" stroke:none;fill-rule:nonzero;fill:#5B7BD6;fill-opacity:1;" d="M 19.839844 19.839844 C 8.992188 19.839844 0 28.832031 0 39.683594 L 0 396.824219 C 0 407.675781 8.992188 416.667969 19.839844 416.667969 L 188.492188 416.667969 L 188.492188 436.507813 L 147.570313 436.507813 C 131.527344 436.507813 119.046875 450.265625 119.046875 466.269531 L 119.046875 496.03125 L 376.984375 496.03125 L 376.984375 466.269531 C 376.984375 450.265625 364.503906 436.507813 348.460938 436.507813 L 307.539063 436.507813 L 307.539063 416.667969 L 476.191406 416.667969 C 487.042969 416.667969 496.03125 407.675781 496.03125 396.824219 L 496.03125 39.683594 C 496.03125 28.832031 487.042969 19.839844 476.191406 19.839844 Z M 19.839844 39.683594 L 476.191406 39.683594 L 476.191406 396.824219 L 299.480469 396.824219 C 298.160156 396.554688 296.765625 396.554688 295.449219 396.824219 L 200.273438 396.824219 C 198.957031 396.554688 197.558594 396.554688 196.242188 396.824219 L 19.839844 396.824219 Z M 59.523438 59.523438 C 48.671875 59.523438 39.683594 68.515625 39.683594 79.363281 L 39.683594 317.460938 C 39.683594 328.3125 48.671875 337.300781 59.523438 337.300781 L 436.507813 337.300781 C 447.359375 337.300781 456.347656 328.3125 456.347656 317.460938 L 456.347656 79.363281 C 456.347656 68.515625 447.359375 59.523438 436.507813 59.523438 Z M 59.523438 79.363281 L 436.507813 79.363281 L 436.507813 317.460938 L 59.523438 317.460938 Z M 325.832031 134.859375 L 319.628906 142.609375 L 239.023438 245.535156 L 175.160156 189.113281 L 167.722656 182.292969 L 154.699219 197.171875 L 162.140625 203.992188 L 233.445313 267.238281 L 241.503906 274.367188 L 248.015625 265.996094 L 335.132813 155.011719 L 341.332031 147.257813 Z M 426.585938 347.222656 C 415.621094 347.222656 406.746094 356.097656 406.746094 367.0625 C 406.746094 378.03125 415.621094 386.90625 426.585938 386.90625 C 437.554688 386.90625 446.429688 378.03125 446.429688 367.0625 C 446.429688 356.097656 437.554688 347.222656 426.585938 347.222656 Z M 208.332031 416.667969 L 287.699219 416.667969 L 287.699219 436.507813 L 208.332031 436.507813 Z M 147.570313 456.347656 L 348.460938 456.347656 C 353.074219 456.347656 357.144531 460.417969 357.144531 466.269531 L 357.144531 476.191406 L 138.890625 476.191406 L 138.890625 466.269531 C 138.890625 460.417969 142.957031 456.347656 147.570313 456.347656 Z "/>
</g>
</svg>
