<?xml version="1.0" encoding="UTF-8"?>
<svg xmlns="http://www.w3.org/2000/svg" xmlns:xlink="http://www.w3.org/1999/xlink" width="512pt" height="512pt" viewBox="0 0 512 512" version="1.1">
<g id="surface1">
<path style=" stroke:none;fill-rule:nonzero;fill:#5B7BD6;fill-opacity:1;" d="M 427.25 7.84375 C 424.328125 7.984375 421.453125 9.203125 419.203125 11.203125 L 388 43.203125 L 356.390625 11.59375 C 351.59375 6.796875 344 6.796875 339.609375 11.59375 L 308 43.203125 L 276.390625 11.59375 C 271.59375 6.796875 264 6.796875 259.609375 11.59375 L 228 43.203125 L 196.390625 11.59375 C 191.59375 6.796875 184 6.796875 179.609375 11.59375 L 159.609375 31.59375 C 154.796875 36.40625 154.796875 44 159.609375 48.390625 C 164.40625 53.203125 171.59375 53.203125 176.390625 48.390625 L 188 36.796875 L 219.609375 68.390625 C 224.40625 73.203125 232 73.203125 236.390625 68.390625 L 268 36.796875 L 299.609375 68.390625 C 304.40625 73.203125 312 73.203125 316.390625 68.390625 L 348 36.796875 L 379.609375 68.390625 C 384.40625 73.203125 392 73.203125 396.390625 68.390625 L 416 48.796875 L 416 276 C 416 282.796875 421.203125 288 428 288 C 434.796875 288 440 282.796875 440 276 L 440 20 C 440 15.203125 437.203125 10.796875 432.40625 8.796875 C 430.75 8.046875 428.984375 7.75 427.25 7.84375 Z M 108 8 C 101.203125 8 96 13.203125 96 20 L 96 360 C 96 366.796875 101.203125 372 108 372 C 114.796875 372 120 366.796875 120 360 L 120 20 C 120 13.203125 114.796875 8 108 8 Z M 172 164 C 165.375 164 160 169.375 160 176 C 160 182.625 165.375 188 172 188 C 178.625 188 184 182.625 184 176 C 184 169.375 178.625 164 172 164 Z M 232 164 C 225.203125 164 220 169.203125 220 176 C 220 182.796875 225.203125 188 232 188 L 368 188 C 374.796875 188 380 182.796875 380 176 C 380 169.203125 374.796875 164 368 164 Z M 172 224 C 165.375 224 160 229.375 160 236 C 160 242.625 165.375 248 172 248 C 178.625 248 184 242.625 184 236 C 184 229.375 178.625 224 172 224 Z M 232 224 C 225.203125 224 220 229.203125 220 236 C 220 242.796875 225.203125 248 232 248 L 368 248 C 374.796875 248 380 242.796875 380 236 C 380 229.203125 374.796875 224 368 224 Z M 172 284 C 165.375 284 160 289.375 160 296 C 160 302.625 165.375 308 172 308 C 178.625 308 184 302.625 184 296 C 184 289.375 178.625 284 172 284 Z M 232 284 C 225.203125 284 220 289.203125 220 296 C 220 302.796875 225.203125 308 232 308 L 368 308 C 374.796875 308 380 302.796875 380 296 C 380 289.203125 374.796875 284 368 284 Z M 461.203125 316 C 454.40625 316 449.203125 321.203125 449.203125 328 L 449.203125 329.609375 C 429.609375 334.796875 416 352 416 372.390625 C 416 386.796875 422.796875 400 434.796875 408.40625 L 472 434.40625 C 477.59375 438.40625 481.203125 444.40625 481.203125 451.203125 C 481.203125 462.40625 472 471.59375 460.796875 471.59375 C 452.796875 471.59375 445.203125 466.796875 442 459.203125 C 439.203125 453.203125 432.40625 450.390625 426.40625 452.796875 C 420.40625 455.59375 417.59375 462.40625 420 468.40625 C 425.59375 480.796875 436 490 448.796875 493.59375 L 448.796875 495.203125 C 448.796875 502 454 507.203125 460.796875 507.203125 C 467.59375 507.203125 472.796875 502 472.796875 495.203125 L 472.796875 493.59375 C 491.59375 488.40625 505.203125 471.203125 505.203125 450.796875 C 505.203125 436 498 422.40625 486 414 L 449.203125 388 C 444 384 440.796875 378 440.796875 371.203125 C 440.796875 360 450 350.796875 461.203125 350.796875 C 469.609375 350.796875 476.796875 355.609375 480 363.203125 C 482.40625 369.203125 489.59375 372 495.59375 369.609375 C 501.59375 367.203125 504.40625 360 502 354 C 496.796875 341.203125 486 332 473.203125 328.390625 L 473.203125 328 C 473.203125 321.203125 468 316 461.203125 316 Z M 28 404 C 21.203125 404 16 409.203125 16 416 L 16 456 C 16 484.796875 39.203125 508 68 508 L 388 508 C 394.796875 508 400 502.796875 400 496 C 400 489.203125 394.796875 484 388 484 C 372.40625 484 360 471.59375 360 456 L 360 416 C 360 409.203125 354.796875 404 348 404 Z M 40 428 L 336 428 L 336 456 C 336 466.40625 339.203125 476 344 484 L 68 484 C 52.40625 484 40 471.59375 40 456 Z "/>
</g>
</svg>
