<svg xmlns="http://www.w3.org/2000/svg" id="surface1" width="37.177" height="37.177" viewBox="0 0 37.177 37.177">
    <defs>
        <style>
            .cls-1{fill:#535353}
        </style>
    </defs>
    <path id="Path_2" d="M18.589 0a18.588 18.588 0 1 0 18.588 18.589A18.61 18.61 0 0 0 18.589 0zm0 2.86a15.719 15.719 0 0 1 11.617 26.318c-1.072-1.971-4.228-3.591-7.6-4.29a1.369 1.369 0 0 1-.893-2.01 7.832 7.832 0 0 0 1.608-3.129 4.593 4.593 0 0 0 1.564-2.86c.145-1.575-.313-1.743-.313-1.743.569-1.859.726-8.858-3.709-8-.715-1.43-5.407-2.564-7.551 1.3a7.582 7.582 0 0 0-.447 6.568c0 .145-.3-.151-.447.849a6.151 6.151 0 0 0 .894 2.994 1.476 1.476 0 0 0 .715.581 7.759 7.759 0 0 0 1.564 3.306 1.992 1.992 0 0 1-1.028 2.011c-3.485.7-6.653 2.318-7.73 4.29A15.73 15.73 0 0 1 18.589 2.86z" class="cls-1" data-name="Path 2"/>
</svg>
