<?xml version="1.0" encoding="UTF-8"?>
<svg xmlns="http://www.w3.org/2000/svg" xmlns:xlink="http://www.w3.org/1999/xlink" width="480pt" height="480pt" viewBox="0 0 480 480" version="1.1">
<g id="surface1">
<path style=" stroke:none;fill-rule:nonzero;fill:#5B7BD6;fill-opacity:1;" d="M 239.132813 72 C 215.71875 72 194.929688 79.59375 179.929688 93.28125 C 176.8125 96.140625 174 99.328125 171.421875 102.679688 C 165.328125 98.953125 157.007813 96 146.273438 96 C 127.148438 96 110.039063 102.234375 97.6875 113.554688 C 85.359375 124.898438 78 141.28125 78 160.429688 C 78 172.898438 81.164063 195.46875 82.898438 207.914063 C 80.15625 210.257813 78 213.257813 78 217.195313 C 78 220.476563 78.914063 222.632813 79.59375 224.835938 C 79.945313 225.960938 80.273438 226.945313 80.460938 227.671875 C 80.671875 228.398438 80.648438 229.171875 80.648438 228 C 80.648438 233.835938 85.265625 237.703125 90.585938 238.96875 C 91.96875 254.671875 99.515625 268.5 111 277.992188 L 111 301.78125 C 107.8125 302.835938 90.867188 308.273438 70.59375 318.304688 C 59.53125 323.765625 48.375 330.1875 39.65625 337.5 C 30.9375 344.789063 24 353.273438 24 363.585938 L 24 384 L 96 384 L 96 408 L 384 408 L 384 384 L 456 384 L 456 363.585938 C 456 353.273438 449.0625 344.789063 440.34375 337.5 C 431.625 330.1875 420.46875 323.765625 409.40625 318.304688 C 389.132813 308.273438 372.1875 302.835938 369 301.78125 L 369 277.992188 C 380.484375 268.5 388.03125 254.671875 389.414063 238.96875 C 394.734375 237.703125 399.351563 233.835938 399.351563 228 C 399.351563 229.171875 399.328125 228.398438 399.539063 227.671875 C 399.726563 226.945313 400.054688 225.960938 400.40625 224.835938 C 401.085938 222.632813 402 220.476563 402 217.195313 C 402 213.257813 399.820313 210.257813 397.078125 207.914063 C 398.835938 195.304688 402 172.359375 402 160.429688 C 402 144.632813 397.546875 132.914063 390.632813 125.179688 C 384.539063 118.429688 376.734375 115.429688 369.1875 114.65625 C 368.132813 112.757813 367.195313 110.367188 362.625 106.453125 C 357.1875 101.789063 348.75 97.242188 337.101563 96.210938 C 336.726563 96.164063 336.398438 96 336 96 C 335.765625 96 335.554688 96.117188 335.320313 96.140625 C 334.3125 96.09375 333.328125 96 332.273438 96 C 321.539063 96 311.53125 98.0625 302.53125 101.789063 C 297.304688 98.789063 291.609375 97.3125 286.03125 96.75 C 284.601563 94.03125 282.257813 90.117188 277.40625 85.59375 C 269.976563 78.703125 257.554688 72 239.132813 72 Z M 239.132813 84 C 254.71875 84 263.742188 89.296875 269.25 94.40625 C 274.734375 99.492188 276.375 104.0625 276.375 104.0625 L 277.804688 108 L 282 108 C 289.125 108 296.320313 110.34375 301.96875 116.484375 C 307.617188 122.625 312 132.960938 312 150 C 312 163.429688 308.320313 192.585938 306.75 204.117188 L 306.164063 208.5 L 310.148438 210.375 C 311.34375 210.914063 312 211.875 312 213 C 312 213.09375 311.4375 216.046875 310.6875 218.625 C 310.289063 219.9375 309.914063 221.226563 309.5625 222.445313 C 309.234375 223.664063 308.882813 224.484375 308.882813 226.5 C 308.882813 227.25 308.273438 228 307.054688 228 L 294 228 L 294 236.25 C 294 253.921875 285.492188 269.484375 272.390625 279.328125 L 270 281.132813 L 270 316.289063 L 274.054688 317.671875 C 274.054688 317.671875 299.226563 326.296875 324.210938 339.398438 C 336.703125 345.960938 349.125 353.648438 358.078125 361.59375 C 367.03125 369.5625 372 377.484375 372 384 L 372 396 L 108 396 L 108 384 C 108 377.484375 112.96875 369.5625 121.921875 361.59375 C 130.875 353.648438 143.296875 345.960938 155.789063 339.398438 C 180.773438 326.296875 205.945313 317.671875 205.945313 317.671875 L 210 316.289063 L 210 281.15625 L 207.609375 279.351563 C 194.507813 269.484375 186 253.921875 186 236.25 L 186 228 L 172.945313 228 C 171.726563 228 171.117188 227.25 171.117188 226.5 C 171.117188 224.484375 170.765625 223.664063 170.4375 222.445313 C 170.085938 221.226563 169.710938 219.9375 169.3125 218.625 C 168.5625 216.046875 168 213.09375 168 213 C 168 211.898438 168.65625 210.914063 169.828125 210.375 L 173.8125 208.5 L 173.226563 204.117188 C 171.65625 192.75 168 164.320313 168 150 C 168 129.773438 175.5 113.578125 188.039063 102.117188 C 200.554688 90.679688 218.320313 84 239.132813 84 Z M 146.273438 108 C 154.757813 108 160.6875 110.132813 164.976563 112.757813 C 161.507813 119.296875 158.953125 126.445313 157.5 134.15625 C 156.609375 135.1875 156 136.5 156 138 C 156 138.890625 156.210938 139.710938 156.5625 140.460938 C 156.210938 143.578125 156 146.742188 156 150 C 156 155.859375 156.539063 163.125 157.242188 170.53125 C 156.515625 171.515625 156 172.664063 156 174 C 156 175.757813 156.796875 177.304688 157.992188 178.40625 C 159.023438 187.6875 160.21875 196.6875 161.039063 202.6875 C 158.203125 205.382813 156 208.78125 156 213 C 156 216.539063 157.007813 219.28125 157.804688 222 C 158.203125 223.382813 158.601563 224.648438 158.835938 225.585938 C 159.09375 226.523438 159.117188 227.460938 159.117188 226.5 C 159.117188 234.023438 165.515625 240 172.945313 240 L 174.46875 240 C 174.820313 246.421875 176.179688 252.5625 178.242188 258.351563 C 175.804688 259.125 174 261.304688 174 264 C 174 267.304688 176.695313 270 180 270 C 181.195313 270 182.25 269.554688 183.1875 268.96875 C 185.71875 273.351563 188.71875 277.429688 192.1875 281.109375 C 192.117188 281.414063 192 281.695313 192 282 C 192 285.304688 194.695313 288 198 288 L 198 307.875 C 194.109375 309.234375 182.390625 313.476563 167.53125 320.320313 C 167.835938 319.59375 168 318.820313 168 318 C 168 314.695313 165.304688 312 162 312 C 158.695313 312 156 314.695313 156 318 C 156 320.789063 157.945313 323.039063 160.523438 323.71875 C 157.125 325.359375 153.820313 326.90625 150.210938 328.78125 C 149.039063 329.414063 147.867188 330.070313 146.71875 330.726563 C 145.875 330.28125 144.984375 330 144 330 C 140.835938 330 138.304688 332.484375 138.09375 335.601563 C 129.328125 340.757813 120.9375 346.429688 113.953125 352.617188 C 107.34375 358.5 101.789063 364.921875 98.671875 372 L 78 372 C 78 368.695313 75.304688 366 72 366 C 68.695313 366 66 368.695313 66 372 L 42 372 C 42 368.695313 39.304688 366 36 366 L 36 363.585938 C 36 359.109375 39.867188 352.96875 47.367188 346.6875 C 52.570313 342.328125 59.273438 338.0625 66.375 334.101563 C 66.1875 334.6875 66 335.320313 66 336 C 66 339.304688 68.695313 342 72 342 C 75.304688 342 78 339.304688 78 336 C 78 333.234375 76.078125 330.984375 73.5 330.304688 C 74.320313 329.90625 75.09375 329.460938 75.914063 329.0625 C 79.992188 327.046875 83.953125 325.289063 87.84375 323.554688 C 88.523438 323.835938 89.25 324 90 324 C 92.507813 324 94.640625 322.476563 95.53125 320.296875 C 107.71875 315.304688 117.140625 312.140625 117.609375 312 L 123 312 L 123 287.085938 C 123.890625 287.625 124.875 288 126 288 C 129.304688 288 132 285.304688 132 282 C 132 278.695313 129.304688 276 126 276 C 124.875 276 123.890625 276.375 123 276.914063 L 123 272.367188 L 120.539063 270.585938 C 118.125 268.804688 115.921875 266.765625 113.90625 264.5625 C 113.90625 264.351563 114 264.1875 114 264 C 114 261.046875 111.820313 258.726563 109.03125 258.210938 C 104.601563 251.226563 102 242.976563 102 234.070313 L 102 228 L 93.28125 228 C 92.554688 228 92.648438 227.742188 92.648438 228 C 92.648438 226.007813 92.296875 225.375 91.992188 224.34375 C 91.710938 223.335938 91.382813 222.304688 91.054688 221.273438 C 90.421875 219.234375 90 216.820313 90 217.195313 C 90 216.914063 90.164063 216.492188 91.125 216.1875 L 95.835938 214.59375 L 95.53125 212.34375 C 95.835938 211.617188 96 210.820313 96 210 C 96 208.664063 95.484375 207.492188 94.734375 206.507813 C 93.75 199.476563 92.484375 189.632813 91.429688 179.71875 C 94.03125 179.039063 96 176.789063 96 174 C 96 170.835938 93.515625 168.304688 90.398438 168.09375 C 90.210938 165.304688 90 162.398438 90 160.429688 C 90 154.265625 90.867188 148.59375 92.507813 143.4375 C 94.546875 142.476563 96 140.414063 96 138 C 96 137.273438 95.835938 136.59375 95.601563 135.9375 C 97.78125 131.625 100.570313 127.734375 103.898438 124.335938 C 104.976563 125.34375 106.40625 126 108 126 C 111.304688 126 114 123.304688 114 120 C 114 118.851563 113.601563 117.84375 113.039063 116.929688 C 122.109375 111.234375 133.40625 108 146.273438 108 Z M 102 228 C 102 231.304688 104.695313 234 108 234 C 111.304688 234 114 231.304688 114 228 C 114 224.695313 111.304688 222 108 222 C 104.695313 222 102 224.695313 102 228 Z M 332.273438 108 C 342.257813 108 348.609375 110.976563 352.96875 114.210938 C 350.179688 114.703125 348 117.046875 348 120 C 348 123.304688 350.695313 126 354 126 C 356.882813 126 359.203125 123.914063 359.765625 121.195313 C 360.09375 121.734375 360.539063 122.484375 360.539063 122.484375 L 362.132813 126 L 366 126 C 371.25 126 377.0625 128.0625 381.679688 133.21875 C 385.007813 136.898438 387.84375 142.359375 389.15625 150.164063 C 386.273438 150.585938 384 152.976563 384 156 C 384 159.28125 386.648438 161.953125 389.90625 162 C 389.789063 167.742188 388.898438 176.859375 387.796875 186.445313 C 385.570313 187.335938 384 189.46875 384 192 C 384 193.96875 385.007813 195.632813 386.484375 196.734375 C 385.898438 201.257813 385.265625 206.695313 384.84375 209.671875 L 384.164063 214.59375 L 388.875 216.1875 C 389.835938 216.515625 390 216.914063 390 217.195313 C 390 216.820313 389.578125 219.234375 388.945313 221.273438 C 388.851563 221.601563 388.734375 221.929688 388.640625 222.28125 C 385.992188 222.890625 384 225.164063 384 228 L 378 228 L 378 234.070313 C 378 237.117188 377.625 240.070313 377.0625 242.953125 C 376.007813 241.21875 374.179688 240 372 240 C 368.695313 240 366 242.695313 366 246 C 366 249.304688 368.695313 252 372 252 C 372.890625 252 373.734375 251.789063 374.507813 251.4375 C 371.296875 259.125 366.09375 265.734375 359.460938 270.585938 L 357 272.367188 L 357 294.914063 C 356.109375 294.375 355.125 294 354 294 C 350.695313 294 348 296.695313 348 300 C 348 303.304688 350.695313 306 354 306 C 355.125 306 356.109375 305.625 357 305.085938 L 357 312 L 362.390625 312 C 362.53125 312.046875 366.140625 313.359375 367.664063 313.875 C 366.632813 314.953125 366 316.40625 366 318 C 366 321.304688 368.695313 324 372 324 C 375.304688 324 378 321.304688 378 318 C 378 317.882813 377.929688 317.789063 377.929688 317.648438 C 385.382813 320.554688 394.59375 324.351563 404.085938 329.0625 C 409.710938 331.851563 415.265625 334.875 420.398438 338.0625 C 421.265625 340.359375 423.421875 342 426 342 C 426.117188 342 426.234375 341.929688 426.375 341.929688 C 428.625 343.5 430.710938 345.09375 432.632813 346.6875 C 434.90625 348.585938 436.734375 350.460938 438.351563 352.3125 C 438.1875 352.851563 438 353.390625 438 354 C 438 357.046875 440.296875 359.460938 443.226563 359.835938 C 443.71875 361.195313 444 362.4375 444 363.585938 L 444 372 L 432 372 C 432 368.695313 429.304688 366 426 366 C 422.695313 366 420 368.695313 420 372 L 396 372 C 396 368.695313 393.304688 366 390 366 C 386.695313 366 384 368.695313 384 372 L 381.328125 372 C 379.429688 367.6875 376.640625 363.609375 373.21875 359.742188 C 375.9375 359.179688 378 356.882813 378 354 C 378 350.695313 375.304688 348 372 348 C 369.117188 348 366.796875 350.085938 366.234375 352.804688 C 366.164063 352.757813 366.117188 352.6875 366.046875 352.617188 C 355.875 343.59375 342.796875 335.601563 329.789063 328.78125 C 321.046875 324.210938 313.078125 320.554688 305.882813 317.4375 C 305.578125 314.390625 303.117188 312 300 312 C 298.59375 312 297.375 312.5625 296.34375 313.382813 C 289.617188 310.664063 284.296875 308.671875 282 307.875 L 282 306 C 285.304688 306 288 303.304688 288 300 C 288 296.695313 285.304688 294 282 294 L 282 286.664063 C 293.015625 277.5 300.84375 264.84375 304.03125 250.40625 C 305.226563 249.304688 306 247.757813 306 246 C 306 244.945313 305.671875 244.03125 305.179688 243.164063 C 305.296875 242.109375 305.484375 241.078125 305.53125 240 L 307.054688 240 C 311.789063 240 316.054688 237.5625 318.5625 233.882813 C 321.585938 233.578125 324 231.117188 324 228 C 324 226.148438 323.109375 224.53125 321.773438 223.429688 C 321.914063 222.9375 322.03125 222.5625 322.195313 222 C 322.992188 219.28125 324 216.539063 324 213 C 324 208.757813 321.796875 205.359375 318.9375 202.664063 C 319.101563 201.421875 319.359375 199.148438 319.570313 197.695313 C 322.101563 196.992188 324 194.765625 324 192 C 324 189.75 322.710938 187.875 320.90625 186.84375 C 322.453125 174.210938 324 160.125 324 150 C 324 140.484375 322.734375 132.328125 320.460938 125.4375 C 322.546875 124.5 324 122.414063 324 120 C 324 116.695313 321.304688 114 318 114 C 317.085938 114 316.21875 114.257813 315.445313 114.632813 C 314.625 113.273438 313.734375 112.007813 312.820313 110.8125 C 318.796875 109.03125 325.289063 108 332.273438 108 Z M 144 114 C 140.695313 114 138 116.695313 138 120 C 138 123.304688 140.695313 126 144 126 C 147.304688 126 150 123.304688 150 120 C 150 116.695313 147.304688 114 144 114 Z M 126 132 C 122.695313 132 120 134.695313 120 138 C 120 141.304688 122.695313 144 126 144 C 129.304688 144 132 141.304688 132 138 C 132 134.695313 129.304688 132 126 132 Z M 336 132 C 332.695313 132 330 134.695313 330 138 C 330 141.304688 332.695313 144 336 144 C 339.304688 144 342 141.304688 342 138 C 342 134.695313 339.304688 132 336 132 Z M 372 132 C 368.695313 132 366 134.695313 366 138 C 366 141.304688 368.695313 144 372 144 C 375.304688 144 378 141.304688 378 138 C 378 134.695313 375.304688 132 372 132 Z M 108 150 C 104.695313 150 102 152.695313 102 156 C 102 159.304688 104.695313 162 108 162 C 111.304688 162 114 159.304688 114 156 C 114 152.695313 111.304688 150 108 150 Z M 144 150 C 140.695313 150 138 152.695313 138 156 C 138 159.304688 140.695313 162 144 162 C 147.304688 162 150 159.304688 150 156 C 150 152.695313 147.304688 150 144 150 Z M 354 150 C 350.695313 150 348 152.695313 348 156 C 348 159.304688 350.695313 162 354 162 C 357.304688 162 360 159.304688 360 156 C 360 152.695313 357.304688 150 354 150 Z M 126 168 C 122.695313 168 120 170.695313 120 174 C 120 177.304688 122.695313 180 126 180 C 129.304688 180 132 177.304688 132 174 C 132 170.695313 129.304688 168 126 168 Z M 336 168 C 332.695313 168 330 170.695313 330 174 C 330 177.304688 332.695313 180 336 180 C 339.304688 180 342 177.304688 342 174 C 342 170.695313 339.304688 168 336 168 Z M 372 168 C 368.695313 168 366 170.695313 366 174 C 366 177.304688 368.695313 180 372 180 C 375.304688 180 378 177.304688 378 174 C 378 170.695313 375.304688 168 372 168 Z M 108 186 C 104.695313 186 102 188.695313 102 192 C 102 195.304688 104.695313 198 108 198 C 111.304688 198 114 195.304688 114 192 C 114 188.695313 111.304688 186 108 186 Z M 144 186 C 140.695313 186 138 188.695313 138 192 C 138 195.304688 140.695313 198 144 198 C 147.304688 198 150 195.304688 150 192 C 150 188.695313 147.304688 186 144 186 Z M 354 186 C 350.695313 186 348 188.695313 348 192 C 348 195.304688 350.695313 198 354 198 C 357.304688 198 360 195.304688 360 192 C 360 188.695313 357.304688 186 354 186 Z M 126 204 C 122.695313 204 120 206.695313 120 210 C 120 213.304688 122.695313 216 126 216 C 129.304688 216 132 213.304688 132 210 C 132 206.695313 129.304688 204 126 204 Z M 336 204 C 332.695313 204 330 206.695313 330 210 C 330 213.304688 332.695313 216 336 216 C 339.304688 216 342 213.304688 342 210 C 342 206.695313 339.304688 204 336 204 Z M 372 204 C 368.695313 204 366 206.695313 366 210 C 366 213.304688 368.695313 216 372 216 C 375.304688 216 378 213.304688 378 210 C 378 206.695313 375.304688 204 372 204 Z M 144 222 C 140.695313 222 138 224.695313 138 228 C 138 231.304688 140.695313 234 144 234 C 147.304688 234 150 231.304688 150 228 C 150 224.695313 147.304688 222 144 222 Z M 354 222 C 350.695313 222 348 224.695313 348 228 C 348 231.304688 350.695313 234 354 234 C 357.304688 234 360 231.304688 360 228 C 360 224.695313 357.304688 222 354 222 Z M 126 240 C 122.695313 240 120 242.695313 120 246 C 120 249.304688 122.695313 252 126 252 C 129.304688 252 132 249.304688 132 246 C 132 242.695313 129.304688 240 126 240 Z M 162 240 C 158.695313 240 156 242.695313 156 246 C 156 249.304688 158.695313 252 162 252 C 165.304688 252 168 249.304688 168 246 C 168 242.695313 165.304688 240 162 240 Z M 336 240 C 332.695313 240 330 242.695313 330 246 C 330 249.304688 332.695313 252 336 252 C 339.304688 252 342 249.304688 342 246 C 342 242.695313 339.304688 240 336 240 Z M 144 258 C 140.695313 258 138 260.695313 138 264 C 138 267.304688 140.695313 270 144 270 C 147.304688 270 150 267.304688 150 264 C 150 260.695313 147.304688 258 144 258 Z M 318 258 C 314.695313 258 312 260.695313 312 264 C 312 267.304688 314.695313 270 318 270 C 321.304688 270 324 267.304688 324 264 C 324 260.695313 321.304688 258 318 258 Z M 354 258 C 350.695313 258 348 260.695313 348 264 C 348 267.304688 350.695313 270 354 270 C 357.304688 270 360 267.304688 360 264 C 360 260.695313 357.304688 258 354 258 Z M 162 276 C 158.695313 276 156 278.695313 156 282 C 156 285.304688 158.695313 288 162 288 C 165.304688 288 168 285.304688 168 282 C 168 278.695313 165.304688 276 162 276 Z M 300 276 C 296.695313 276 294 278.695313 294 282 C 294 285.304688 296.695313 288 300 288 C 303.304688 288 306 285.304688 306 282 C 306 278.695313 303.304688 276 300 276 Z M 336 276 C 332.695313 276 330 278.695313 330 282 C 330 285.304688 332.695313 288 336 288 C 339.304688 288 342 285.304688 342 282 C 342 278.695313 339.304688 276 336 276 Z M 144 294 C 140.695313 294 138 296.695313 138 300 C 138 303.304688 140.695313 306 144 306 C 147.304688 306 150 303.304688 150 300 C 150 296.695313 147.304688 294 144 294 Z M 180 294 C 176.695313 294 174 296.695313 174 300 C 174 303.304688 176.695313 306 180 306 C 183.304688 306 186 303.304688 186 300 C 186 296.695313 183.304688 294 180 294 Z M 318 294 C 314.695313 294 312 296.695313 312 300 C 312 303.304688 314.695313 306 318 306 C 321.304688 306 324 303.304688 324 300 C 324 296.695313 321.304688 294 318 294 Z M 126 312 C 122.695313 312 120 314.695313 120 318 C 120 321.304688 122.695313 324 126 324 C 129.304688 324 132 321.304688 132 318 C 132 314.695313 129.304688 312 126 312 Z M 336 312 C 332.695313 312 330 314.695313 330 318 C 330 321.304688 332.695313 324 336 324 C 339.304688 324 342 321.304688 342 318 C 342 314.695313 339.304688 312 336 312 Z M 108 330 C 104.695313 330 102 332.695313 102 336 C 102 339.304688 104.695313 342 108 342 C 111.304688 342 114 339.304688 114 336 C 114 332.695313 111.304688 330 108 330 Z M 354 330 C 350.695313 330 348 332.695313 348 336 C 348 339.304688 350.695313 342 354 342 C 357.304688 342 360 339.304688 360 336 C 360 332.695313 357.304688 330 354 330 Z M 390 330 C 386.695313 330 384 332.695313 384 336 C 384 339.304688 386.695313 342 390 342 C 393.304688 342 396 339.304688 396 336 C 396 332.695313 393.304688 330 390 330 Z M 54 348 C 50.695313 348 48 350.695313 48 354 C 48 357.304688 50.695313 360 54 360 C 57.304688 360 60 357.304688 60 354 C 60 350.695313 57.304688 348 54 348 Z M 90 348 C 86.695313 348 84 350.695313 84 354 C 84 357.304688 86.695313 360 90 360 C 93.304688 360 96 357.304688 96 354 C 96 350.695313 93.304688 348 90 348 Z M 408 348 C 404.695313 348 402 350.695313 402 354 C 402 357.304688 404.695313 360 408 360 C 411.304688 360 414 357.304688 414 354 C 414 350.695313 411.304688 348 408 348 Z "/>
</g>
</svg>
