<svg xmlns="http://www.w3.org/2000/svg" width="18.402" height="13.966" viewBox="0 0 18.402 13.966">
    <path id="prefix__workflow-diagram" d="M15.366 59.522c-.533-.215-1.037-.421-1.183-.734-.023-.279-.02-.5-.019-.752v-.086a2.8 2.8 0 0 0 .531-1.164 1.2 1.2 0 0 0 .472-.947 1.053 1.053 0 0 0-.11-.643 2.976 2.976 0 0 0-.135-2.182 1.709 1.709 0 0 0-1.344-.994l-.161-.362a.365.365 0 0 0-.336-.218 5.16 5.16 0 0 0-1.507.207c-.016-.037-.029-.076-.046-.112a2.14 2.14 0 0 0-1.767-1.261l-.233-.474a.37.37 0 0 0-.329-.2 3.953 3.953 0 0 0-3.484 1.622 3.178 3.178 0 0 0-.3.6l-.088-.178A.368.368 0 0 0 5 51.439a3.1 3.1 0 0 0-2.72 1.278 2.761 2.761 0 0 0-.251 2.434 1 1 0 0 0-.135.656 1.206 1.206 0 0 0 .478.952 2.819 2.819 0 0 0 .546 1.171v.08c0 .257 0 .479-.02.762-.146.316-.656.521-1.194.74-.963.389-2.283.923-2.379 2.564a.366.366 0 0 0 .1.274.366.366 0 0 0 .267.115H2a3.345 3.345 0 0 0-.115.714.357.357 0 0 0 .1.273.364.364 0 0 0 .267.116h12.571a.368.368 0 0 0 .267-.115.374.374 0 0 0 .1-.274 3.346 3.346 0 0 0-.115-.714h2.284a.368.368 0 0 0 .368-.389c-.097-1.635-1.405-2.165-2.361-2.554zM2.67 62.833c0-2.136 3.674-2.224 4.252-3.8a13.761 13.761 0 0 0 .03-1.405A2.771 2.771 0 0 1 6.189 56c-.19-.016-.49-.2-.577-.942a.692.692 0 0 1 .254-.689 4.711 4.711 0 0 1 .172-2.088 2.439 2.439 0 0 1 .293-.655 2.911 2.911 0 0 1 2.02-1.212c.043-.009.086-.017.131-.024s.093-.011.139-.017c.095-.011.185-.027.284-.034l.006.01.063-.006.227.454a.368.368 0 0 0 .329.2 1.4 1.4 0 0 1 1.339.859c.022.044.037.095.056.141a4.322 4.322 0 0 1 .284 2.369c.154.043.3.293.254.689-.088.738-.388.926-.577.942a2.773 2.773 0 0 1-.747 1.632c0 .491-.019.867.029 1.405.58 1.574 4.237 1.408 4.237 3.8z" transform="translate(.676 -49.602)" style="fill:#fff"/>
</svg>
